<svg width="407" height="295" viewBox="0 0 407 295" fill="none" xmlns="http://www.w3.org/2000/svg">
<g clip-path="url(#clip0)">
<path d="M359 165C359 95.964 291.353 40 207.906 40H0V295H207.906C291.353 295 359 239.036 359 170V165Z" fill="#5368DF"/>
<mask id="mask0" mask-type="alpha" maskUnits="userSpaceOnUse" x="42" y="0" width="365" height="235">
<path d="M400.839 0H47.437C44.4342 0 42 2.43267 42 5.43353V229.566C42 232.567 44.4342 235 47.437 235H400.839C403.842 235 406.276 232.567 406.276 229.566V5.43353C406.276 2.43267 403.842 0 400.839 0Z" fill="white"/>
</mask>
<g mask="url(#mask0)">
</g>
<mask id="mask1" mask-type="alpha" maskUnits="userSpaceOnUse" x="173" y="0" width="238" height="235">
<path d="M404.627 0H178.418C175.426 0 173 2.4318 173 5.43158V229.484C173 232.484 175.426 234.916 178.418 234.916H404.627C407.62 234.916 410.045 232.484 410.045 229.484V5.43158C410.045 2.4318 407.62 0 404.627 0Z" fill="white"/>
</mask>
<g mask="url(#mask1)">
<path d="M404.627 0H178.418C175.426 0 173 2.4318 173 5.43158V229.484C173 232.484 175.426 234.916 178.418 234.916H404.627C407.62 234.916 410.045 232.484 410.045 229.484V5.43158C410.045 2.4318 407.62 0 404.627 0Z" fill="#E8EAF6"/>
<path fill-rule="evenodd" clip-rule="evenodd" d="M170.609 0.133751H541.077V40.1916H170.609V0.133751Z" fill="#242A45"/>
<path opacity="0.245" d="M199.055 31.3653C205.039 31.3653 209.891 26.5017 209.891 20.5022C209.891 14.5026 205.039 9.63902 199.055 9.63902C193.07 9.63902 188.218 14.5026 188.218 20.5022C188.218 26.5017 193.07 31.3653 199.055 31.3653Z" fill="white"/>
<path opacity="0.75" d="M299.291 13.7127H222.082C220.96 13.7127 220.05 14.6246 220.05 15.7495C220.05 16.8745 220.96 17.7864 222.082 17.7864H299.291C300.413 17.7864 301.323 16.8745 301.323 15.7495C301.323 14.6246 300.413 13.7127 299.291 13.7127Z" fill="white"/>
<path opacity="0.25" d="M261.364 23.218H222.082C220.96 23.218 220.05 24.1299 220.05 25.2548C220.05 26.3797 220.96 27.2916 222.082 27.2916H261.364C262.486 27.2916 263.396 26.3797 263.396 25.2548C263.396 24.1299 262.486 23.218 261.364 23.218Z" fill="white"/>
<path d="M346.382 57.7105H196.705C193.712 57.7105 191.286 60.1423 191.286 63.1421V75.3632C191.286 78.3629 193.712 80.7947 196.705 80.7947H346.382C349.374 80.7947 351.8 78.3629 351.8 75.3632V63.1421C351.8 60.1423 349.374 57.7105 346.382 57.7105Z" fill="white"/>
<path d="M346.382 90.3H196.705C193.712 90.3 191.286 92.7318 191.286 95.7316V107.953C191.286 110.952 193.712 113.384 196.705 113.384H346.382C349.374 113.384 351.8 110.952 351.8 107.953V95.7316C351.8 92.7318 349.374 90.3 346.382 90.3Z" fill="white"/>
<path d="M346.382 122.889H196.705C193.712 122.889 191.286 125.321 191.286 128.321V140.542C191.286 143.542 193.712 145.974 196.705 145.974H346.382C349.374 145.974 351.8 143.542 351.8 140.542V128.321C351.8 125.321 349.374 122.889 346.382 122.889Z" fill="white"/>
<path d="M346.382 155.479H196.705C193.712 155.479 191.286 157.911 191.286 160.911V173.132C191.286 176.131 193.712 178.563 196.705 178.563H346.382C349.374 178.563 351.8 176.131 351.8 173.132V160.911C351.8 157.911 349.374 155.479 346.382 155.479Z" fill="white"/>
<path d="M346.382 188.068H196.705C193.712 188.068 191.286 190.5 191.286 193.5V205.721C191.286 208.721 193.712 211.153 196.705 211.153H346.382C349.374 211.153 351.8 208.721 351.8 205.721V193.5C351.8 190.5 349.374 188.068 346.382 188.068Z" fill="white"/>
<mask id="mask2" mask-type="alpha" maskUnits="userSpaceOnUse" x="234" y="56" width="237" height="202">
<path d="M471 56.3852H234.103V257.321H471V56.3852Z" fill="white"/>
</mask>
<g mask="url(#mask2)">
<path fill-rule="evenodd" clip-rule="evenodd" d="M234.83 226.32C235.284 227.69 235.992 229.035 236.98 230.35C254.049 253.077 317.83 260.653 380.714 256.023C413.545 253.605 436.704 239.372 451.34 226.32C454.514 223.491 457.534 220.494 460.389 217.342C463.551 213.849 466.019 209.969 467.778 205.872C472.957 193.801 471.959 179.857 464.308 168.42C457.822 158.728 448.919 151.566 444.32 143.609C435.561 128.457 481.866 90.1519 451.733 65.9515C441.097 57.4076 418.438 55.436 393.717 56.7613C363.627 58.3758 330.483 64.8781 312.251 70.3708C274.519 81.7343 250.904 98.194 245.514 116.713C240.124 135.232 254.529 143.612 267.105 161.289C278.954 177.94 227.449 204.06 234.83 226.32" fill="#3A499E"/>
<path fill-rule="evenodd" clip-rule="evenodd" d="M298.601 118.05L310.104 116.1L311.841 126.827L297.618 131.037L298.601 118.05Z" fill="#306299"/>
<path fill-rule="evenodd" clip-rule="evenodd" d="M310.486 116.859C310.486 116.859 319.41 116.623 328.773 112.705L324.373 121.025L311.672 124.926L310.486 116.859Z" fill="#FA9E89"/>
<mask id="mask3" mask-type="alpha" maskUnits="userSpaceOnUse" x="362" y="57" width="108" height="151">
<path d="M469.646 57.7431H362.755V207.006H469.646V57.7431Z" fill="white"/>
</mask>
<g mask="url(#mask3)">
<path opacity="0.152" fill-rule="evenodd" clip-rule="evenodd" d="M363.268 93.1424C368.762 120.408 462.154 162.185 466.644 207.006C471.465 194.953 470.536 181.031 463.413 169.611C457.376 159.932 449.089 152.782 444.808 144.837C436.654 129.708 479.759 91.4592 451.709 67.2955C441.808 58.7645 420.717 56.7956 397.704 58.1195C390.698 59.7246 358.311 68.5285 363.268 93.1424Z" fill="white"/>
</g>
<path opacity="0.149" fill-rule="evenodd" clip-rule="evenodd" d="M232.722 221.337C232.055 226.677 234.307 230.391 235.187 231.675C250.378 253.858 333.049 261.252 389.016 256.734C418.238 254.374 442.185 239.275 456.777 222.637L232.722 221.337Z" fill="black"/>
<path opacity="0.128" fill-rule="evenodd" clip-rule="evenodd" d="M421.134 223.925C421.134 223.925 427.959 224.339 427.854 226.41C427.749 228.481 423.445 233.035 423.445 233.035L429.885 230.723L449.327 229.981L447.228 231.793C447.228 231.793 431.564 232.518 430.865 233.07C430.165 233.622 421.204 240.386 419.665 240.662C418.125 240.938 320.317 240.814 320.317 240.814C320.317 240.814 310.254 241.214 308.574 238.108C306.894 235.003 300.804 235.209 299.124 237.901C297.444 240.593 297.677 250.532 297.677 250.532C297.677 250.532 293.076 249.328 292.824 249.221C276.864 242.456 259.014 221.337 259.014 221.337L421.134 223.925V223.925Z" fill="black"/>
<path fill-rule="evenodd" clip-rule="evenodd" d="M311.507 203.74L307.426 226.96L306.75 230.809L308.234 231.027L308.34 231.044L311.583 231.521C311.583 231.521 322.4 204.809 323.32 198.397C324.242 191.986 306.29 166.342 306.29 166.342L286.806 168.004C286.291 173.584 294.083 184.103 301.047 192.29C306.534 198.739 311.507 203.74 311.507 203.74" fill="#F4F2F9"/>
<path fill-rule="evenodd" clip-rule="evenodd" d="M311.245 202.69L306.587 229.689L308.041 229.907L308.09 230.163L308.144 229.924C308.737 227.324 315.689 204.303 315.9 199.611C316.126 194.637 306.4 179.242 306.4 179.242L301.005 191.269C306.375 197.701 311.245 202.689 311.245 202.689" fill="#E0DFEA"/>
<path fill-rule="evenodd" clip-rule="evenodd" d="M285.427 169.058L304.843 167.437L305.745 135.033C305.745 135.033 301.005 118.137 295.812 118.137C292.728 118.137 289.726 119.362 287.888 122.343C286.633 124.382 285.922 127.245 286.105 131.099C286.518 139.774 285.61 164.304 285.45 168.456C285.436 168.847 285.427 169.058 285.427 169.058" fill="#6397D9"/>
<path fill-rule="evenodd" clip-rule="evenodd" d="M290.768 166.53L290.403 127.953L294.909 118.774L289.651 118.137L287.803 120.316C286.591 122.355 285.905 125.218 286.082 129.071C286.48 137.744 285.582 162.87 285.427 167.021L290.768 166.53V166.53Z" fill="#8BBFF7"/>
<path fill-rule="evenodd" clip-rule="evenodd" d="M290.845 129L305.08 156.158L305.449 143.943L305.745 134.032L293.877 129H290.845Z" fill="#306299"/>
<path fill-rule="evenodd" clip-rule="evenodd" d="M327.195 239.668H414.333C417.576 239.668 420.205 237.015 420.205 233.741V84.0062C420.205 80.7323 417.576 78.0789 414.333 78.0789H327.195C323.951 78.0789 321.322 80.7323 321.322 84.0062V233.741C321.322 237.015 323.951 239.668 327.195 239.668" fill="white"/>
<path fill-rule="evenodd" clip-rule="evenodd" d="M326.741 99.3232V159.356C326.741 160.59 327.727 161.589 328.944 161.589H412.583C413.8 161.589 414.786 160.59 414.786 159.356V99.3232C414.786 98.0889 413.8 97.0895 412.583 97.0895H328.944C327.727 97.0895 326.741 98.0889 326.741 99.3232Z" fill="#E4DCF1"/>
<path fill-rule="evenodd" clip-rule="evenodd" d="M370.186 113.384L371.237 114.187L373.473 123.945L373.425 125.552L369.885 125.605C369.644 125.609 369.402 125.561 369.187 125.436C368.174 124.839 367.742 123.178 368.301 121.706C368.602 120.914 369.372 119.513 369.461 118.894C369.674 117.411 370.186 113.384 370.186 113.384" fill="#8E2B43"/>
<path fill-rule="evenodd" clip-rule="evenodd" d="M351.8 163.626L388.524 163.485L389.74 163.481C389.74 163.481 394.134 142.672 387.02 134.652C385.288 132.701 383.036 131.262 380.582 130.327C372.947 127.41 363.343 129.339 361.284 135.736C358.565 144.189 351.8 163.626 351.8 163.626Z" fill="#4EC9B4"/>
<path fill-rule="evenodd" clip-rule="evenodd" d="M380.354 130.69C380.354 130.69 378.854 134.781 375.543 135.642C372.233 136.504 368.439 133.453 368.75 129.9C368.75 129.9 371.922 129.434 372.439 127.891C373.068 126.017 372.646 125.953 372.646 125.953C372.646 125.953 371.405 123.583 370.991 121.862C370.577 120.139 371.198 113.463 374.094 112.818C375.926 112.409 378.854 113.033 380.923 116.048C380.923 116.048 379.888 121.862 378.44 124.661C376.991 127.46 376.267 128.752 380.354 130.69Z" fill="#FA9E89"/>
<path opacity="0.184" fill-rule="evenodd" clip-rule="evenodd" d="M328.886 78.7667L418.85 205.204V233.886C418.85 237.08 416.344 239.668 413.254 239.668H331.87C328.289 239.668 325.386 236.669 325.386 232.968V81.3562C325.386 79.3676 326.964 78.6703 328.886 78.7667" fill="#F4F2F9"/>
<path fill-rule="evenodd" clip-rule="evenodd" d="M355.864 151.026L351.135 130.358L343.673 131.591L350.909 161.589L355.864 151.026Z" fill="#4EC9B4"/>
<path fill-rule="evenodd" clip-rule="evenodd" d="M349.633 129.772L349.226 127.663C349.226 127.663 350.445 126.859 350.242 125.654C350.039 124.449 350.445 121.637 350.445 121.637C350.445 121.637 349.797 121.198 349.379 121.988C349.081 122.551 348.617 123.847 348.617 123.847C348.617 123.847 347.062 119.66 346.703 118.558C346.55 118.089 346.397 117.358 346.042 117.469C345.856 117.528 345.924 117.955 345.956 118.372C346.051 119.624 346.584 121.621 346.584 121.621L346.313 121.779L345.187 118.197C345.138 118.023 345.056 117.76 344.874 117.746C344.713 117.732 344.552 117.82 344.552 118.222C344.552 119.026 345.416 122.348 345.416 122.348L345.2 122.497L343.889 119.592C343.799 119.373 343.474 119.392 343.419 119.622C343.375 119.804 343.388 120.064 343.536 120.432C343.942 121.437 344.349 123.043 344.349 123.043L344.247 123.16L343.536 121.687C343.409 121.451 343.096 121.3 343.006 121.551C342.878 121.903 343.993 124.926 343.993 125.127C343.993 125.328 344.756 128.064 345.568 128.265C346.381 128.466 346.432 130.358 346.432 130.358L349.633 129.772V129.772Z" fill="#FA9E89"/>
<path fill-rule="evenodd" clip-rule="evenodd" d="M396.738 179.242H411.84C412.719 179.242 413.433 178.514 413.433 177.617V175.436C413.433 174.538 412.719 173.811 411.84 173.811H396.738C395.859 173.811 395.146 174.538 395.146 175.436V177.617C395.146 178.514 395.859 179.242 396.738 179.242H396.738ZM375.066 179.242H390.168C391.047 179.242 391.76 178.514 391.76 177.617V175.436C391.76 174.538 391.047 173.811 390.168 173.811H375.066C374.187 173.811 373.473 174.538 373.473 175.436V177.617C373.473 178.514 374.187 179.242 375.066 179.242ZM352.038 179.242H367.14C368.019 179.242 368.733 178.514 368.733 177.617V175.436C368.733 174.538 368.019 173.811 367.14 173.811H352.039C351.159 173.811 350.446 174.538 350.446 175.436V177.617C350.446 178.514 351.159 179.242 352.039 179.242H352.038ZM330.366 179.242H345.468C346.347 179.242 347.06 178.514 347.06 177.617V175.436C347.06 174.538 346.347 173.811 345.468 173.811H330.366C329.487 173.811 328.773 174.538 328.773 175.436V177.617C328.773 178.514 329.487 179.242 330.366 179.242" fill="#FFDEDD"/>
<path fill-rule="evenodd" clip-rule="evenodd" d="M331.852 192.142H411.707C412.66 192.142 413.432 191.409 413.432 190.506V188.347C413.432 187.444 412.66 186.711 411.707 186.711H331.852C330.899 186.711 330.127 187.444 330.127 188.347V190.506C330.127 191.409 330.899 192.142 331.852 192.142ZM411.707 203.005C412.66 203.005 413.432 202.272 413.432 201.369V199.21C413.432 198.307 412.66 197.574 411.707 197.574H331.852C330.899 197.574 330.127 198.307 330.127 199.21V201.369C330.127 202.272 330.899 203.005 331.852 203.005H411.707ZM331.852 213.868H411.707C412.66 213.868 413.432 213.135 413.432 212.232V210.073C413.432 209.17 412.66 208.437 411.707 208.437H331.852C330.899 208.437 330.127 209.17 330.127 210.073V212.232C330.127 213.135 330.899 213.868 331.852 213.868ZM331.852 222.695H411.707C412.66 222.695 413.432 221.961 413.432 221.058V218.899C413.432 217.996 412.66 217.263 411.707 217.263H331.852C330.899 217.263 330.127 217.996 330.127 218.899V221.058C330.127 221.961 330.899 222.695 331.852 222.695Z" fill="#F4F2F9"/>
<path fill-rule="evenodd" clip-rule="evenodd" d="M382.428 110.886C382.428 110.886 378.161 104.879 370.108 108.357C362.057 111.835 370.797 117.526 370.797 117.526C370.797 117.526 370.969 115.312 372.242 114.68L372.138 116.647L376.646 117.438L377.369 115.541L377.834 117.702L380.105 118.544C380.105 118.544 378.247 125.078 377.162 126.027C377.162 126.027 376.698 127.555 376.853 127.871C377.007 128.187 383.872 129.926 384.75 128.346C385.628 126.765 383.821 124.552 383.253 123.076C382.686 121.601 384.285 113.767 382.427 110.886" fill="#FC516B"/>
<path fill-rule="evenodd" clip-rule="evenodd" d="M402.157 94.3737H413.871C414.75 94.3737 415.464 93.4619 415.464 92.3368C415.464 91.2118 414.75 90.3 413.871 90.3H402.157C401.277 90.3 400.564 91.2118 400.564 92.3368C400.564 93.4619 401.277 94.3737 402.157 94.3737Z" fill="#E4DCF1"/>
<path fill-rule="evenodd" clip-rule="evenodd" d="M384.309 143.258C384.309 143.258 382.505 156.352 380.442 161.589H369.565C369.565 161.589 367.771 156.064 376.369 154.257C382.35 153 384.309 143.258 384.309 143.258ZM362.9 139.863C362.9 139.863 360.692 146.653 361.106 148.689C361.52 150.726 363.314 152.22 363.314 153.578C363.314 154.936 362.21 160.096 362.21 160.096L355.864 160.232C355.864 160.232 356.917 160.051 359.313 158.161C362.969 155.275 359.83 148.91 360.607 145.295C361.013 143.398 362.9 139.863 362.9 139.863V139.863ZM355.864 150.572C355.864 150.572 355.719 156.263 354.567 155.387C353.414 154.511 354.135 146.047 353.126 143.128C352.117 140.209 349.091 130.868 349.091 130.868L351.685 130.358L355.864 150.572Z" fill="#44AD99"/>
<path fill-rule="evenodd" clip-rule="evenodd" d="M338.677 124.57C338.677 124.57 337.609 125.04 336.306 126.638C335.875 127.168 333.577 128.01 333.033 128.667C325.146 138.185 314.614 145.532 307.863 142.607C299.242 138.872 297.618 135.398 297.618 135.398L303.317 127.684C303.317 127.684 309.861 137.705 315.124 134.975C320.388 132.246 330.764 125.092 330.764 125.092L331.039 120.703C331.039 120.703 331.645 120.54 331.936 121.379C332.227 122.218 332.24 122.943 332.24 122.943L336.337 118.174C336.337 118.174 337.124 117.93 336.884 118.696C336.645 119.463 335.197 121.662 335.197 121.662C335.197 121.662 335.048 122.08 335.362 121.889C335.728 121.667 338.59 118.432 338.59 118.432C338.59 118.432 339.249 118.389 338.98 119.02C338.772 119.507 337.04 121.797 336.454 122.655C336.279 122.911 336.645 122.815 336.645 122.815L339.012 120.798C339.333 120.582 339.665 120.654 339.602 121.048C339.551 121.36 338.906 122.079 338.523 122.365C337.565 123.075 336.897 124.369 336.897 124.369L338.959 123.622C338.959 123.622 339.362 123.981 338.677 124.57V124.57ZM290.168 99.459L292.776 118.687L301.34 120.174C301.34 120.174 300.907 119.72 300.411 119.115C299.905 118.499 299.334 117.723 299.082 117.101C298.506 115.672 298.502 114.34 298.502 114.34C298.502 114.34 302.3 114.77 302.889 112.578C303.479 110.384 302.115 100.164 302.115 100.164C302.115 100.164 300.419 93.7423 290.168 99.459Z" fill="#FA9E89"/>
<path fill-rule="evenodd" clip-rule="evenodd" d="M297.356 99.6776C297.356 99.6776 301.58 102.875 305.632 100.152C305.632 100.152 303.063 99.9139 302.264 98.6117C302.264 98.6117 303.863 99.0258 305.745 96.3616C305.745 96.3616 302.436 96.8355 301.294 95.8287C300.153 94.8218 294.332 93.2229 290.851 95.6508C287.369 98.0787 287.426 99.8555 287.426 99.8555C287.426 99.8555 285.372 100.625 285.428 101.81C285.485 102.994 290.507 112.705 290.507 112.705L291.592 108.382C291.592 108.382 290.736 108.639 290.222 106.626C289.709 104.612 291.934 105.481 292.163 105.895C292.391 106.31 293.875 103.053 293.875 103.053L293.647 101.158C293.647 101.158 292.904 98.7298 297.356 99.6783" fill="#261F27"/>
<path fill-rule="evenodd" clip-rule="evenodd" d="M289.346 189.687C291.778 199.523 287.28 238.849 287.28 238.849L291.681 239.668C309.399 198.921 305.346 165.663 305.346 165.663L285.427 167.302C285.427 167.302 285.478 166.471 285.499 166.668C285.728 168.71 287.13 180.715 289.346 189.687" fill="white"/>
<path fill-rule="evenodd" clip-rule="evenodd" d="M311.346 228.857L316.462 232.835C316.462 232.835 318.477 232.591 318.865 233.525C319.252 234.458 319.291 235.514 319.291 235.514L313.943 235.595L305.068 232.064L306.463 228.126L311.346 228.857ZM291.15 240.578C291.15 240.578 292.96 243.513 294.784 245.909C295.397 246.715 296.895 247.064 297.478 249.029C297.979 250.72 296.977 251.889 296.977 251.889C296.977 251.889 293.614 251.282 291.275 249.203C288.936 247.123 285.427 243.135 285.427 243.135L286.388 239.668L291.15 240.578H291.15Z" fill="#6397D9"/>
<path fill-rule="evenodd" clip-rule="evenodd" d="M299.098 120.245C299.098 120.245 291.951 120.362 291.313 119.495L290.845 120.783C290.845 120.783 296.507 123.877 300.327 122.565L299.098 120.245V120.245Z" fill="#306299"/>
<path fill-rule="evenodd" clip-rule="evenodd" d="M309.132 129.622L300.606 139.184C300.606 139.184 289.213 128.944 289.496 125.734C289.779 122.525 293.953 115.879 300.356 121.984C306.585 127.924 309.132 129.622 309.132 129.622Z" fill="#8CC5F2"/>
<path fill-rule="evenodd" clip-rule="evenodd" d="M287.164 239.433L288.902 239.668C288.902 239.668 297.047 210.834 294.368 189.53C293.563 183.125 290.749 167.021 290.749 167.021L285.427 167.521C285.643 169.574 287.024 181.002 289.102 190.02C291.382 199.907 287.165 239.433 287.165 239.433" fill="#F4F2F9"/>
<path fill-rule="evenodd" clip-rule="evenodd" d="M296.435 119.195C297.443 119.415 297.992 119.485 298.295 119.495C297.823 118.839 297.29 118.013 297.055 117.351C296.518 115.829 296.514 114.411 296.514 114.411C296.514 114.411 294.501 113.88 294.294 114.13C294.088 114.38 294.294 118.727 296.435 119.195" fill="#E6846F"/>
<path fill-rule="evenodd" clip-rule="evenodd" d="M395.145 121.532C395.145 128.655 400.596 134.432 407.318 134.432C410.133 134.432 412.723 133.419 414.786 131.719V111.345C412.723 109.643 410.134 108.632 407.318 108.632C400.596 108.632 395.145 114.408 395.145 121.532Z" fill="#CEC3E2"/>
<path fill-rule="evenodd" clip-rule="evenodd" d="M395.145 121.871C395.145 128.807 400.22 134.432 406.479 134.432C409.1 134.432 411.511 133.446 413.432 131.79V111.952C411.512 110.297 409.099 109.311 406.479 109.311C400.22 109.311 395.145 114.935 395.145 121.871Z" fill="#C3B8D8"/>
<path fill-rule="evenodd" clip-rule="evenodd" d="M377.536 133.139C377.536 133.139 378.881 132.389 379.093 132.253C379.305 132.118 382.066 132.865 385.748 136.677C389.427 140.488 386.242 143.686 387.798 145.727C389.357 147.769 387.871 152.057 387.091 154.985C386.312 157.911 387.091 161.585 387.091 161.585L387.132 161.589L388.365 161.585C388.365 161.585 392.824 141.986 385.605 134.431C383.847 132.594 381.562 131.238 379.072 130.358L377.536 133.139Z" fill="#44AD99"/>
</g>
</g>
</g>
<defs>
<clipPath id="clip0">
<rect width="407" height="295" fill="white"/>
</clipPath>
</defs>
</svg>
