<svg width="407" height="295" viewBox="0 0 407 295" fill="none" xmlns="http://www.w3.org/2000/svg">
<path d="M359 165C359 95.964 291.353 40 207.906 40H7.98702e-06V295H207.906C291.353 295 359 239.036 359 170V165Z" fill="#5368DF"/>
<mask id="mask0" mask-type="alpha" maskUnits="userSpaceOnUse" x="42" y="0" width="365" height="235">
<path d="M400.839 0H47.437C44.4342 0 42 2.43267 42 5.43353V229.566C42 232.567 44.4342 235 47.437 235H400.839C403.842 235 406.276 232.567 406.276 229.566V5.43353C406.276 2.43267 403.842 0 400.839 0Z" fill="white"/>
</mask>
<g mask="url(#mask0)">
<path d="M400.839 0H47.437C44.4342 0 42 2.43267 42 5.43353V229.566C42 232.567 44.4342 235 47.437 235H400.839C403.842 235 406.276 232.567 406.276 229.566V5.43353C406.276 2.43267 403.842 0 400.839 0Z" fill="#E8EAF6"/>
<path fill-rule="evenodd" clip-rule="evenodd" d="M39.601 0.13382H411.353V40.2061H39.601V0.13382Z" fill="#242A45"/>
<path opacity="0.245" d="M68.145 31.3766C74.1505 31.3766 79.0189 26.5112 79.0189 20.5095C79.0189 14.5078 74.1505 9.64249 68.145 9.64249C62.1395 9.64249 57.2711 14.5078 57.2711 20.5095C57.2711 26.5112 62.1395 31.3766 68.145 31.3766Z" fill="white"/>
<path opacity="0.104" d="M381.45 31.3766C387.455 31.3766 392.324 26.5112 392.324 20.5095C392.324 14.5078 387.455 9.64249 381.45 9.64249C375.444 9.64249 370.576 14.5078 370.576 20.5095C370.576 26.5112 375.444 31.3766 381.45 31.3766Z" fill="white"/>
<path opacity="0.75" d="M168.729 13.7177H91.2521C90.1261 13.7177 89.2133 14.6299 89.2133 15.7552C89.2133 16.8805 90.1261 17.7928 91.2521 17.7928H168.729C169.855 17.7928 170.768 16.8805 170.768 15.7552C170.768 14.6299 169.855 13.7177 168.729 13.7177Z" fill="white"/>
<path opacity="0.25" d="M130.67 23.2263H91.2521C90.126 23.2263 89.2132 24.1386 89.2132 25.2639C89.2132 26.3892 90.126 27.3015 91.2521 27.3015H130.67C131.796 27.3015 132.709 26.3892 132.709 25.2639C132.709 24.1386 131.796 23.2263 130.67 23.2263Z" fill="white"/>
<path d="M252.682 63.1647H86.1753C83.1726 63.1647 80.7383 65.5974 80.7383 68.5983V272.355C80.7383 275.356 83.1726 277.789 86.1753 277.789H252.682C255.685 277.789 258.119 275.356 258.119 272.355V68.5983C258.119 65.5974 255.685 63.1647 252.682 63.1647Z" fill="white"/>
<path d="M362.781 63.1647H286.663C283.66 63.1647 281.226 65.5974 281.226 68.5983V272.355C281.226 275.356 283.66 277.789 286.663 277.789H362.781C365.783 277.789 368.217 275.356 368.217 272.355V68.5983C368.217 65.5974 365.783 63.1647 362.781 63.1647Z" fill="white"/>
<path opacity="0.5" d="M213.584 89.1078H136.107C134.981 89.1078 134.068 90.02 134.068 91.1454C134.068 92.2707 134.981 93.1829 136.107 93.1829H213.584C214.71 93.1829 215.622 92.2707 215.622 91.1454C215.622 90.02 214.71 89.1078 213.584 89.1078Z" fill="#242A45"/>
<path d="M113 106.767C119.005 106.767 123.874 101.901 123.874 95.8997C123.874 89.898 119.005 85.0326 113 85.0326C106.994 85.0326 102.126 89.898 102.126 95.8997C102.126 101.901 106.994 106.767 113 106.767Z" fill="#F98E5D"/>
<path opacity="0.25" d="M352.906 78.2407H297.177C296.051 78.2407 295.138 79.1529 295.138 80.2783C295.138 81.4036 296.051 82.3158 297.177 82.3158H352.906C354.032 82.3158 354.944 81.4036 354.944 80.2783C354.944 79.1529 354.032 78.2407 352.906 78.2407Z" fill="#242A45"/>
<path opacity="0.25" d="M352.906 91.8246H297.177C296.051 91.8246 295.138 92.7368 295.138 93.8621C295.138 94.9874 296.051 95.8997 297.177 95.8997H352.906C354.032 95.8997 354.944 94.9874 354.944 93.8621C354.944 92.7368 354.032 91.8246 352.906 91.8246Z" fill="#242A45"/>
<path opacity="0.25" d="M352.906 105.408H297.177C296.051 105.408 295.138 106.321 295.138 107.446C295.138 108.571 296.051 109.483 297.177 109.483H352.906C354.032 109.483 354.944 108.571 354.944 107.446C354.944 106.321 354.032 105.408 352.906 105.408Z" fill="#242A45"/>
<path opacity="0.25" d="M352.906 118.992H297.177C296.051 118.992 295.138 119.904 295.138 121.03C295.138 122.155 296.051 123.067 297.177 123.067H352.906C354.032 123.067 354.944 122.155 354.944 121.03C354.944 119.904 354.032 118.992 352.906 118.992Z" fill="#242A45"/>
<path opacity="0.25" d="M352.906 142.085H297.177C296.051 142.085 295.138 142.997 295.138 144.122C295.138 145.248 296.051 146.16 297.177 146.16H352.906C354.032 146.16 354.944 145.248 354.944 144.122C354.944 142.997 354.032 142.085 352.906 142.085Z" fill="#242A45"/>
<path opacity="0.25" d="M352.906 155.668H297.177C296.051 155.668 295.138 156.581 295.138 157.706C295.138 158.831 296.051 159.744 297.177 159.744H352.906C354.032 159.744 354.944 158.831 354.944 157.706C354.944 156.581 354.032 155.668 352.906 155.668Z" fill="#242A45"/>
<path opacity="0.25" d="M352.906 169.252H297.177C296.051 169.252 295.138 170.165 295.138 171.29C295.138 172.415 296.051 173.327 297.177 173.327H352.906C354.032 173.327 354.944 172.415 354.944 171.29C354.944 170.165 354.032 169.252 352.906 169.252Z" fill="#242A45"/>
<path opacity="0.25" d="M175.525 98.6165H136.107C134.981 98.6165 134.068 99.5287 134.068 100.654C134.068 101.779 134.981 102.692 136.107 102.692H175.525C176.651 102.692 177.564 101.779 177.564 100.654C177.564 99.5287 176.651 98.6165 175.525 98.6165Z" fill="#242A45"/>
<path d="M113 144.801C119.005 144.801 123.874 139.936 123.874 133.934C123.874 127.933 119.005 123.067 113 123.067C106.994 123.067 102.126 127.933 102.126 133.934C102.126 139.936 106.994 144.801 113 144.801Z" fill="#6AC6D6"/>
<path opacity="0.5" d="M213.584 127.142H136.107C134.981 127.142 134.068 128.055 134.068 129.18C134.068 130.305 134.981 131.218 136.107 131.218H213.584C214.71 131.218 215.622 130.305 215.622 129.18C215.622 128.055 214.71 127.142 213.584 127.142Z" fill="#242A45"/>
<path opacity="0.25" d="M175.525 136.651H136.107C134.981 136.651 134.068 137.563 134.068 138.689C134.068 139.814 134.981 140.726 136.107 140.726H175.525C176.651 140.726 177.564 139.814 177.564 138.689C177.564 137.563 176.651 136.651 175.525 136.651Z" fill="#242A45"/>
<path d="M113 182.836C119.005 182.836 123.874 177.971 123.874 171.969C123.874 165.967 119.005 161.102 113 161.102C106.994 161.102 102.126 165.967 102.126 171.969C102.126 177.971 106.994 182.836 113 182.836Z" fill="#A47ED4"/>
<path opacity="0.5" d="M213.584 165.177H136.107C134.981 165.177 134.068 166.089 134.068 167.215C134.068 168.34 134.981 169.252 136.107 169.252H213.584C214.71 169.252 215.622 168.34 215.622 167.215C215.622 166.089 214.71 165.177 213.584 165.177Z" fill="#242A45"/>
<path opacity="0.25" d="M175.525 174.686H136.107C134.981 174.686 134.068 175.598 134.068 176.723C134.068 177.849 134.981 178.761 136.107 178.761H175.525C176.651 178.761 177.564 177.849 177.564 176.723C177.564 175.598 176.651 174.686 175.525 174.686Z" fill="#242A45"/>
<path d="M113 220.871C119.005 220.871 123.874 216.005 123.874 210.004C123.874 204.002 119.005 199.137 113 199.137C106.994 199.137 102.126 204.002 102.126 210.004C102.126 216.005 106.994 220.871 113 220.871Z" fill="#EC7878"/>
<path opacity="0.5" d="M213.584 203.212H136.107C134.981 203.212 134.068 204.124 134.068 205.249C134.068 206.375 134.981 207.287 136.107 207.287H213.584C214.71 207.287 215.622 206.375 215.622 205.249C215.622 204.124 214.71 203.212 213.584 203.212Z" fill="#242A45"/>
<path opacity="0.25" d="M175.525 212.721H136.107C134.981 212.721 134.068 213.633 134.068 214.758C134.068 215.883 134.981 216.796 136.107 216.796H175.525C176.651 216.796 177.564 215.883 177.564 214.758C177.564 213.633 176.651 212.721 175.525 212.721Z" fill="#242A45"/>
</g>
</svg>
