<svg width="407" height="295" viewBox="0 0 407 295" fill="none" xmlns="http://www.w3.org/2000/svg">
<g clip-path="url(#clip0)">
<path d="M359 165C359 95.964 291.353 40 207.906 40H0V295H207.906C291.353 295 359 239.036 359 170V165Z" fill="#5368DF"/>
<mask id="mask0" mask-type="alpha" maskUnits="userSpaceOnUse" x="42" y="0" width="365" height="235">
<path d="M400.839 0H47.437C44.4342 0 42 2.43267 42 5.43353V229.566C42 232.567 44.4342 235 47.437 235H400.839C403.842 235 406.276 232.567 406.276 229.566V5.43353C406.276 2.43267 403.842 0 400.839 0Z" fill="white"/>
</mask>
<g mask="url(#mask0)">
</g>
<mask id="mask1" mask-type="alpha" maskUnits="userSpaceOnUse" x="168" y="0" width="239" height="236">
<path d="M401.247 0H173.456C170.443 0 168 2.4366 168 5.44231V229.937C168 232.943 170.443 235.38 173.456 235.38H401.247C404.26 235.38 406.703 232.943 406.703 229.937V5.44231C406.703 2.4366 404.26 0 401.247 0Z" fill="white"/>
</mask>
<g mask="url(#mask1)">
<path d="M401.247 0H173.456C170.443 0 168 2.4366 168 5.44231V229.937C168 232.943 170.443 235.38 173.456 235.38H401.247C404.26 235.38 406.703 232.943 406.703 229.937V5.44231C406.703 2.4366 404.26 0 401.247 0Z" fill="#E8EAF6"/>
<path fill-rule="evenodd" clip-rule="evenodd" d="M165.593 0.134018H538.651V40.271H165.593V0.134018Z" fill="#242A45"/>
<path opacity="0.245" d="M194.237 31.4273C200.264 31.4273 205.149 26.5541 205.149 20.5427C205.149 14.5313 200.264 9.65806 194.237 9.65806C188.21 9.65806 183.325 14.5313 183.325 20.5427C183.325 26.5541 188.21 31.4273 194.237 31.4273Z" fill="white"/>
<path opacity="0.75" d="M295.174 13.7398H217.425C216.295 13.7398 215.379 14.6535 215.379 15.7807C215.379 16.9078 216.295 17.8215 217.425 17.8215H295.174C296.304 17.8215 297.22 16.9078 297.22 15.7807C297.22 14.6535 296.304 13.7398 295.174 13.7398Z" fill="white"/>
<path opacity="0.25" d="M256.982 23.2638H217.425C216.295 23.2638 215.379 24.1776 215.379 25.3047C215.379 26.4318 216.295 27.3456 217.425 27.3456H256.982C258.112 27.3456 259.028 26.4318 259.028 25.3047C259.028 24.1776 258.112 23.2638 256.982 23.2638Z" fill="white"/>
<g filter="url(#filter0_d)">
<path d="M317.36 93.8798H191.87C188.857 93.8798 186.414 96.3164 186.414 99.3221V261.911C186.414 264.917 188.857 267.353 191.87 267.353H317.36C320.373 267.353 322.816 264.917 322.816 261.911V99.3221C322.816 96.3164 320.373 93.8798 317.36 93.8798Z" fill="black"/>
</g>
<path d="M317.36 93.8798H191.87C188.857 93.8798 186.414 96.3164 186.414 99.3221V261.911C186.414 264.917 188.857 267.353 191.87 267.353H317.36C320.373 267.353 322.816 264.917 322.816 261.911V99.3221C322.816 96.3164 320.373 93.8798 317.36 93.8798Z" fill="white"/>
<path opacity="0.5" d="M300.31 117.69H235.303C234.173 117.69 233.257 118.604 233.257 119.731C233.257 120.858 234.173 121.772 235.303 121.772H300.31C301.44 121.772 302.356 120.858 302.356 119.731C302.356 118.604 301.44 117.69 300.31 117.69Z" fill="#242A45"/>
<path d="M213.013 135.377C219.039 135.377 223.925 130.504 223.925 124.493C223.925 118.481 219.039 113.608 213.013 113.608C206.986 113.608 202.1 118.481 202.1 124.493C202.1 130.504 206.986 135.377 213.013 135.377Z" fill="#5267DF"/>
<path opacity="0.25" d="M268.064 127.214H235.303C234.173 127.214 233.257 128.128 233.257 129.255C233.257 130.382 234.173 131.296 235.303 131.296H268.064C269.194 131.296 270.11 130.382 270.11 129.255C270.11 128.128 269.194 127.214 268.064 127.214Z" fill="#242A45"/>
<path d="M213.013 173.474C219.039 173.474 223.925 168.6 223.925 162.589C223.925 156.578 219.039 151.704 213.013 151.704C206.986 151.704 202.1 156.578 202.1 162.589C202.1 168.6 206.986 173.474 213.013 173.474Z" fill="#5267DF"/>
<path opacity="0.5" d="M300.31 155.786H235.303C234.173 155.786 233.257 156.7 233.257 157.827C233.257 158.954 234.173 159.868 235.303 159.868H300.31C301.44 159.868 302.356 158.954 302.356 157.827C302.356 156.7 301.44 155.786 300.31 155.786Z" fill="#242A45"/>
<path opacity="0.25" d="M268.064 165.31H235.303C234.173 165.31 233.257 166.224 233.257 167.351C233.257 168.478 234.173 169.392 235.303 169.392H268.064C269.194 169.392 270.11 168.478 270.11 167.351C270.11 166.224 269.194 165.31 268.064 165.31Z" fill="#242A45"/>
<path d="M213.013 211.57C219.039 211.57 223.925 206.697 223.925 200.685C223.925 194.674 219.039 189.8 213.013 189.8C206.986 189.8 202.1 194.674 202.1 200.685C202.1 206.697 206.986 211.57 213.013 211.57Z" fill="#5267DF"/>
<path opacity="0.5" d="M300.31 193.882H235.303C234.173 193.882 233.257 194.796 233.257 195.923C233.257 197.05 234.173 197.964 235.303 197.964H300.31C301.44 197.964 302.356 197.05 302.356 195.923C302.356 194.796 301.44 193.882 300.31 193.882Z" fill="#242A45"/>
<path opacity="0.25" d="M268.064 203.406H235.303C234.173 203.406 233.257 204.32 233.257 205.447C233.257 206.574 234.173 207.488 235.303 207.488H268.064C269.194 207.488 270.11 206.574 270.11 205.447C270.11 204.32 269.194 203.406 268.064 203.406Z" fill="#242A45"/>
<path d="M213.013 249.666C219.039 249.666 223.925 244.793 223.925 238.781C223.925 232.77 219.039 227.897 213.013 227.897C206.986 227.897 202.1 232.77 202.1 238.781C202.1 244.793 206.986 249.666 213.013 249.666Z" fill="#5267DF"/>
<path opacity="0.5" d="M300.31 231.978H235.303C234.173 231.978 233.257 232.892 233.257 234.019C233.257 235.146 234.173 236.06 235.303 236.06H300.31C301.44 236.06 302.356 235.146 302.356 234.019C302.356 232.892 301.44 231.978 300.31 231.978Z" fill="#242A45"/>
<g filter="url(#filter1_d)">
<g filter="url(#filter2_d)">
<path d="M470.13 93.8798H344.64C341.627 93.8798 339.184 96.3164 339.184 99.3221V261.911C339.184 264.917 341.627 267.353 344.64 267.353H470.13C473.143 267.353 475.586 264.917 475.586 261.911V99.3221C475.586 96.3164 473.143 93.8798 470.13 93.8798Z" fill="black"/>
</g>
<path d="M470.13 93.8798H344.64C341.627 93.8798 339.184 96.3164 339.184 99.3221V261.911C339.184 264.917 341.627 267.353 344.64 267.353H470.13C473.143 267.353 475.586 264.917 475.586 261.911V99.3221C475.586 96.3164 473.143 93.8798 470.13 93.8798Z" fill="white"/>
<path opacity="0.5" d="M453.079 117.69H388.072C386.942 117.69 386.026 118.604 386.026 119.731C386.026 120.858 386.942 121.772 388.072 121.772H453.079C454.209 121.772 455.126 120.858 455.126 119.731C455.126 118.604 454.209 117.69 453.079 117.69Z" fill="#242A45"/>
<path d="M365.782 135.377C371.809 135.377 376.695 130.504 376.695 124.493C376.695 118.481 371.809 113.608 365.782 113.608C359.756 113.608 354.87 118.481 354.87 124.493C354.87 130.504 359.756 135.377 365.782 135.377Z" fill="#5267DF"/>
<path opacity="0.25" d="M420.833 127.214H388.072C386.942 127.214 386.026 128.128 386.026 129.255C386.026 130.382 386.942 131.296 388.072 131.296H420.833C421.963 131.296 422.879 130.382 422.879 129.255C422.879 128.128 421.963 127.214 420.833 127.214Z" fill="#242A45"/>
<path d="M365.782 173.474C371.809 173.474 376.695 168.6 376.695 162.589C376.695 156.578 371.809 151.704 365.782 151.704C359.756 151.704 354.87 156.578 354.87 162.589C354.87 168.6 359.756 173.474 365.782 173.474Z" fill="#FA5959"/>
<path opacity="0.5" d="M453.079 155.786H388.072C386.942 155.786 386.026 156.7 386.026 157.827C386.026 158.954 386.942 159.868 388.072 159.868H453.079C454.209 159.868 455.126 158.954 455.126 157.827C455.126 156.7 454.209 155.786 453.079 155.786Z" fill="#242A45"/>
<path opacity="0.25" d="M420.833 165.31H388.072C386.942 165.31 386.026 166.224 386.026 167.351C386.026 168.478 386.942 169.392 388.072 169.392H420.833C421.963 169.392 422.879 168.478 422.879 167.351C422.879 166.224 421.963 165.31 420.833 165.31Z" fill="#242A45"/>
<path d="M365.782 211.57C371.809 211.57 376.695 206.697 376.695 200.685C376.695 194.674 371.809 189.8 365.782 189.8C359.756 189.8 354.87 194.674 354.87 200.685C354.87 206.697 359.756 211.57 365.782 211.57Z" fill="#5267DF"/>
<path opacity="0.5" d="M453.079 193.882H388.072C386.942 193.882 386.026 194.796 386.026 195.923C386.026 197.05 386.942 197.964 388.072 197.964H453.079C454.209 197.964 455.126 197.05 455.126 195.923C455.126 194.796 454.209 193.882 453.079 193.882Z" fill="#242A45"/>
<path opacity="0.25" d="M420.833 203.406H388.072C386.942 203.406 386.026 204.32 386.026 205.447C386.026 206.574 386.942 207.488 388.072 207.488H420.833C421.963 207.488 422.879 206.574 422.879 205.447C422.879 204.32 421.963 203.406 420.833 203.406Z" fill="#242A45"/>
<path d="M365.782 249.666C371.809 249.666 376.695 244.793 376.695 238.781C376.695 232.77 371.809 227.897 365.782 227.897C359.756 227.897 354.87 232.77 354.87 238.781C354.87 244.793 359.756 249.666 365.782 249.666Z" fill="#5267DF"/>
<path opacity="0.5" d="M453.079 231.978H388.072C386.942 231.978 386.026 232.892 386.026 234.019C386.026 235.146 386.942 236.06 388.072 236.06H453.079C454.209 236.06 455.126 235.146 455.126 234.019C455.126 232.892 454.209 231.978 453.079 231.978Z" fill="#242A45"/>
</g>
<path d="M342.594 57.8245H191.87C188.857 57.8245 186.414 60.2611 186.414 63.2668V75.512C186.414 78.5177 188.857 80.9543 191.87 80.9543H342.594C345.607 80.9543 348.05 78.5177 348.05 75.512V63.2668C348.05 60.2611 345.607 57.8245 342.594 57.8245Z" fill="white"/>
<path d="M421.707 160.548C446.944 160.548 467.402 140.142 467.402 114.969C467.402 89.796 446.944 69.3894 421.707 69.3894C396.471 69.3894 376.013 89.796 376.013 114.969C376.013 140.142 396.471 160.548 421.707 160.548Z" fill="#495DCF" fill-opacity="0.2" stroke="#5267DF" stroke-width="20"/>
</g>
</g>
<defs>
<filter id="filter0_d" x="176.414" y="88.8798" width="156.402" height="193.474" filterUnits="userSpaceOnUse" color-interpolation-filters="sRGB">
<feFlood flood-opacity="0" result="BackgroundImageFix"/>
<feColorMatrix in="SourceAlpha" type="matrix" values="0 0 0 0 0 0 0 0 0 0 0 0 0 0 0 0 0 0 127 0"/>
<feOffset dy="5"/>
<feGaussianBlur stdDeviation="5"/>
<feColorMatrix type="matrix" values="0 0 0 0 0.285333 0 0 0 0 0.363695 0 0 0 0 0.811481 0 0 0 0.0830693 0"/>
<feBlend mode="normal" in2="BackgroundImageFix" result="effect1_dropShadow"/>
<feBlend mode="normal" in="SourceGraphic" in2="effect1_dropShadow" result="shape"/>
</filter>
<filter id="filter1_d" x="329.184" y="88.8798" width="156.402" height="193.474" filterUnits="userSpaceOnUse" color-interpolation-filters="sRGB">
<feFlood flood-opacity="0" result="BackgroundImageFix"/>
<feColorMatrix in="SourceAlpha" type="matrix" values="0 0 0 0 0 0 0 0 0 0 0 0 0 0 0 0 0 0 127 0"/>
<feOffset dy="5"/>
<feGaussianBlur stdDeviation="5"/>
<feColorMatrix type="matrix" values="0 0 0 0 0.285333 0 0 0 0 0.363695 0 0 0 0 0.811481 0 0 0 0.0830693 0"/>
<feBlend mode="normal" in2="BackgroundImageFix" result="effect1_dropShadow"/>
<feBlend mode="normal" in="SourceGraphic" in2="effect1_dropShadow" result="shape"/>
</filter>
<filter id="filter2_d" x="329.184" y="88.8798" width="156.402" height="193.474" filterUnits="userSpaceOnUse" color-interpolation-filters="sRGB">
<feFlood flood-opacity="0" result="BackgroundImageFix"/>
<feColorMatrix in="SourceAlpha" type="matrix" values="0 0 0 0 0 0 0 0 0 0 0 0 0 0 0 0 0 0 127 0"/>
<feOffset dy="5"/>
<feGaussianBlur stdDeviation="5"/>
<feColorMatrix type="matrix" values="0 0 0 0 0.285333 0 0 0 0 0.363695 0 0 0 0 0.811481 0 0 0 0.0830693 0"/>
<feBlend mode="normal" in2="BackgroundImageFix" result="effect1_dropShadow"/>
<feBlend mode="normal" in="SourceGraphic" in2="effect1_dropShadow" result="shape"/>
</filter>
<clipPath id="clip0">
<rect width="407" height="295" fill="white"/>
</clipPath>
</defs>
</svg>
