<svg width="415" height="301" viewBox="0 0 415 301" fill="none" xmlns="http://www.w3.org/2000/svg">
<path d="M118 171C118 101.964 173.964 46 243 46H415V301H243C173.964 301 118 245.036 118 176V171Z" fill="#5368DF"/>
<g clip-path="url(#clip0)">
<g filter="url(#filter0_d)">
<path d="M360.122 5.76932H39.8782C31.1358 5.76932 24.0487 12.8386 24.0487 21.559V223.789C24.0487 232.509 31.1358 239.578 39.8782 239.578H360.122C368.864 239.578 375.951 232.509 375.951 223.789V21.559C375.951 12.8386 368.864 5.76932 360.122 5.76932Z" fill="black"/>
</g>
<path d="M360.122 5.76932H39.8782C31.1358 5.76932 24.0487 12.8386 24.0487 21.559V223.789C24.0487 232.509 31.1358 239.578 39.8782 239.578H360.122C368.864 239.578 375.951 232.509 375.951 223.789V21.559C375.951 12.8386 368.864 5.76932 360.122 5.76932Z" fill="#777777"/>
<path d="M359.653 6.98389H40.4871C32.0809 6.98389 25.2664 13.7813 25.2664 22.1663V223.707C25.2664 232.092 32.0809 238.889 40.4871 238.889H359.653C368.059 238.889 374.874 232.092 374.874 223.707V22.1663C374.874 13.7813 368.059 6.98389 359.653 6.98389Z" fill="url(#paint0_linear)"/>
<path opacity="0.1" d="M340.939 15.67H59.9878C58.3066 15.67 56.9437 17.0295 56.9437 18.7065V227.468C56.9437 229.145 58.3066 230.505 59.9878 230.505H340.939C342.621 230.505 343.984 229.145 343.984 227.468V18.7065C343.984 17.0295 342.621 15.67 340.939 15.67Z" fill="#2A2A2A"/>
<mask id="mask0" mask-type="alpha" maskUnits="userSpaceOnUse" x="36" y="17" width="328" height="211">
<path d="M358.314 17.4919H41.723C39.033 17.4919 36.8524 19.6671 36.8524 22.3503V222.758C36.8524 225.441 39.033 227.616 41.723 227.616H358.314C361.004 227.616 363.184 225.441 363.184 222.758V22.3503C363.184 19.6671 361.004 17.4919 358.314 17.4919Z" fill="white"/>
</mask>
<g mask="url(#mask0)">
<path d="M358.314 17.4919H41.723C39.033 17.4919 36.8524 19.6671 36.8524 22.3503V222.758C36.8524 225.441 39.033 227.616 41.723 227.616H358.314C361.004 227.616 363.184 225.441 363.184 222.758V22.3503C363.184 19.6671 361.004 17.4919 358.314 17.4919Z" fill="#E8EAF6"/>
<path fill-rule="evenodd" clip-rule="evenodd" d="M34.7032 17.6116H367.732V53.442H34.7032V17.6116Z" fill="#5267DF"/>
<path opacity="0.245" d="M60.274 45.5472C65.6539 45.5472 70.0152 41.1969 70.0152 35.8304C70.0152 30.464 65.6539 26.1137 60.274 26.1137C54.894 26.1137 50.5327 30.464 50.5327 35.8304C50.5327 41.1969 54.894 45.5472 60.274 45.5472Z" fill="white"/>
<path opacity="0.104" d="M340.944 45.5472C346.324 45.5472 350.685 41.1969 350.685 35.8304C350.685 30.464 346.324 26.1137 340.944 26.1137C335.564 26.1137 331.202 30.464 331.202 35.8304C331.202 41.1969 335.564 45.5472 340.944 45.5472Z" fill="white"/>
<path opacity="0.75" d="M150.381 29.7575H80.9741C79.9654 29.7575 79.1477 30.5732 79.1477 31.5794C79.1477 32.5856 79.9654 33.4013 80.9741 33.4013H150.381C151.389 33.4013 152.207 32.5856 152.207 31.5794C152.207 30.5732 151.389 29.7575 150.381 29.7575Z" fill="white"/>
<path opacity="0.25" d="M116.286 38.2596H80.9741C79.9654 38.2596 79.1477 39.0753 79.1477 40.0815C79.1477 41.0877 79.9654 41.9034 80.9741 41.9034H116.286C117.295 41.9034 118.113 41.0877 118.113 40.0815C118.113 39.0753 117.295 38.2596 116.286 38.2596Z" fill="white"/>
<path d="M225.589 73.9705H76.4262C73.7362 73.9705 71.5556 76.1457 71.5556 78.8289V261.018C71.5556 263.701 73.7362 265.876 76.4262 265.876H225.589C228.279 265.876 230.46 263.701 230.46 261.018V78.8289C230.46 76.1457 228.279 73.9705 225.589 73.9705Z" fill="white"/>
<path d="M324.219 73.9705H256.03C253.34 73.9705 251.16 76.1457 251.16 78.8289V261.018C251.16 263.701 253.34 265.876 256.03 265.876H324.219C326.909 265.876 329.09 263.701 329.09 261.018V78.8289C329.09 76.1457 326.909 73.9705 324.219 73.9705Z" fill="white"/>
<path opacity="0.5" d="M190.563 97.1674H121.157C120.148 97.1674 119.33 97.9831 119.33 98.9893C119.33 99.9955 120.148 100.811 121.157 100.811H190.563C191.572 100.811 192.39 99.9955 192.39 98.9893C192.39 97.9831 191.572 97.1674 190.563 97.1674Z" fill="#242A45"/>
</g>
<path d="M100.457 112.957C105.837 112.957 110.198 108.607 110.198 103.24C110.198 97.8739 105.837 93.5236 100.457 93.5236C95.0767 93.5236 90.7154 97.8739 90.7154 103.24C90.7154 108.607 95.0767 112.957 100.457 112.957Z" fill="#F98E5D"/>
<path opacity="0.25" d="M315.373 87.4506H265.449C264.44 87.4506 263.623 88.2663 263.623 89.2725C263.623 90.2787 264.44 91.0944 265.449 91.0944H315.373C316.382 91.0944 317.199 90.2787 317.199 89.2725C317.199 88.2663 316.382 87.4506 315.373 87.4506Z" fill="#242A45"/>
<path opacity="0.25" d="M315.373 99.5966H265.449C264.44 99.5966 263.623 100.412 263.623 101.418C263.623 102.425 264.44 103.24 265.449 103.24H315.373C316.382 103.24 317.199 102.425 317.199 101.418C317.199 100.412 316.382 99.5966 315.373 99.5966Z" fill="#242A45"/>
<path opacity="0.25" d="M315.373 111.742H265.449C264.44 111.742 263.623 112.558 263.623 113.564C263.623 114.571 264.44 115.386 265.449 115.386H315.373C316.382 115.386 317.199 114.571 317.199 113.564C317.199 112.558 316.382 111.742 315.373 111.742Z" fill="#242A45"/>
<path opacity="0.25" d="M315.373 123.888H265.449C264.44 123.888 263.623 124.704 263.623 125.71C263.623 126.716 264.44 127.532 265.449 127.532H315.373C316.382 127.532 317.199 126.716 317.199 125.71C317.199 124.704 316.382 123.888 315.373 123.888Z" fill="#242A45"/>
<path opacity="0.25" d="M315.373 144.536H265.449C264.44 144.536 263.623 145.352 263.623 146.358C263.623 147.365 264.44 148.18 265.449 148.18H315.373C316.382 148.18 317.199 147.365 317.199 146.358C317.199 145.352 316.382 144.536 315.373 144.536Z" fill="#242A45"/>
<path opacity="0.25" d="M315.373 156.682H265.449C264.44 156.682 263.623 157.498 263.623 158.504C263.623 159.51 264.44 160.326 265.449 160.326H315.373C316.382 160.326 317.199 159.51 317.199 158.504C317.199 157.498 316.382 156.682 315.373 156.682Z" fill="#242A45"/>
<path opacity="0.25" d="M315.373 168.828H265.449C264.44 168.828 263.623 169.644 263.623 170.65C263.623 171.656 264.44 172.472 265.449 172.472H315.373C316.382 172.472 317.199 171.656 317.199 170.65C317.199 169.644 316.382 168.828 315.373 168.828Z" fill="#242A45"/>
<path opacity="0.25" d="M156.469 105.669H121.157C120.148 105.669 119.33 106.485 119.33 107.491C119.33 108.498 120.148 109.313 121.157 109.313H156.469C157.478 109.313 158.295 108.498 158.295 107.491C158.295 106.485 157.478 105.669 156.469 105.669Z" fill="#242A45"/>
<path d="M100.457 146.966C105.837 146.966 110.198 142.615 110.198 137.249C110.198 131.883 105.837 127.532 100.457 127.532C95.0767 127.532 90.7154 131.883 90.7154 137.249C90.7154 142.615 95.0767 146.966 100.457 146.966Z" fill="#6AC6D6"/>
<path opacity="0.5" d="M190.563 131.176H121.157C120.148 131.176 119.33 131.992 119.33 132.998C119.33 134.004 120.148 134.82 121.157 134.82H190.563C191.572 134.82 192.39 134.004 192.39 132.998C192.39 131.992 191.572 131.176 190.563 131.176Z" fill="#242A45"/>
<path opacity="0.25" d="M156.469 139.678H121.157C120.148 139.678 119.33 140.494 119.33 141.5C119.33 142.506 120.148 143.322 121.157 143.322H156.469C157.478 143.322 158.295 142.506 158.295 141.5C158.295 140.494 157.478 139.678 156.469 139.678Z" fill="#242A45"/>
<path d="M100.457 180.974C105.837 180.974 110.198 176.624 110.198 171.258C110.198 165.891 105.837 161.541 100.457 161.541C95.0767 161.541 90.7154 165.891 90.7154 171.258C90.7154 176.624 95.0767 180.974 100.457 180.974Z" fill="#A47ED4"/>
<path opacity="0.5" d="M190.563 165.185H121.157C120.148 165.185 119.33 166 119.33 167.006C119.33 168.013 120.148 168.828 121.157 168.828H190.563C191.572 168.828 192.39 168.013 192.39 167.006C192.39 166 191.572 165.185 190.563 165.185Z" fill="#242A45"/>
<path opacity="0.25" d="M156.469 173.687H121.157C120.148 173.687 119.33 174.502 119.33 175.509C119.33 176.515 120.148 177.33 121.157 177.33H156.469C157.478 177.33 158.295 176.515 158.295 175.509C158.295 174.502 157.478 173.687 156.469 173.687Z" fill="#242A45"/>
<path d="M100.457 214.983C105.837 214.983 110.198 210.633 110.198 205.266C110.198 199.9 105.837 195.549 100.457 195.549C95.0767 195.549 90.7154 199.9 90.7154 205.266C90.7154 210.633 95.0767 214.983 100.457 214.983Z" fill="#EC7878"/>
<path opacity="0.5" d="M190.563 199.193H121.157C120.148 199.193 119.33 200.009 119.33 201.015C119.33 202.021 120.148 202.837 121.157 202.837H190.563C191.572 202.837 192.39 202.021 192.39 201.015C192.39 200.009 191.572 199.193 190.563 199.193Z" fill="#242A45"/>
<path opacity="0.25" d="M156.469 207.695H121.157C120.148 207.695 119.33 208.511 119.33 209.517C119.33 210.523 120.148 211.339 121.157 211.339H156.469C157.478 211.339 158.295 210.523 158.295 209.517C158.295 208.511 157.478 207.695 156.469 207.695Z" fill="#242A45"/>
</g>
<defs>
<filter id="filter0_d" x="-15.9513" y="-4.23068" width="431.903" height="313.809" filterUnits="userSpaceOnUse" color-interpolation-filters="sRGB">
<feFlood flood-opacity="0" result="BackgroundImageFix"/>
<feColorMatrix in="SourceAlpha" type="matrix" values="0 0 0 0 0 0 0 0 0 0 0 0 0 0 0 0 0 0 127 0"/>
<feOffset dy="30"/>
<feGaussianBlur stdDeviation="20"/>
<feColorMatrix type="matrix" values="0 0 0 0 0.182433 0 0 0 0 0.230633 0 0 0 0 0.506058 0 0 0 0.20012 0"/>
<feBlend mode="normal" in2="BackgroundImageFix" result="effect1_dropShadow"/>
<feBlend mode="normal" in="SourceGraphic" in2="effect1_dropShadow" result="shape"/>
</filter>
<linearGradient id="paint0_linear" x1="371.423" y1="173.202" x2="92.2735" y2="-12.8999" gradientUnits="userSpaceOnUse">
<stop stop-color="#151515"/>
<stop offset="1" stop-color="#3D3D3D"/>
</linearGradient>
<clipPath id="clip0">
<rect width="400" height="283" fill="white"/>
</clipPath>
</defs>
</svg>
