<svg width="836" height="560" viewBox="0 0 836 560" fill="none" xmlns="http://www.w3.org/2000/svg">
<path d="M235 247.5C235 146.708 316.708 65 417.5 65H836V560H417.5C316.708 560 235 478.292 235 377.5V247.5Z" fill="#5267DF"/>
<g clip-path="url(#clip0)">
<g filter="url(#filter0_d)">
<path d="M713.435 0H101.77C85.072 0 71.5356 13.5141 71.5356 30.1845V416.779C71.5356 433.449 85.072 446.963 101.77 446.963H713.435C730.133 446.963 743.67 433.449 743.67 416.779V30.1845C743.67 13.5141 730.133 0 713.435 0Z" fill="black"/>
</g>
<path d="M713.435 0H101.77C85.072 0 71.5356 13.5141 71.5356 30.1845V416.779C71.5356 433.449 85.072 446.963 101.77 446.963H713.435C730.133 446.963 743.67 433.449 743.67 416.779V30.1845C743.67 13.5141 730.133 0 713.435 0Z" fill="#777777"/>
<path d="M712.54 2.32187H102.933C86.8771 2.32187 73.8613 15.3162 73.8613 31.3455V416.622C73.8613 432.652 86.8771 445.646 102.933 445.646H712.54C728.595 445.646 741.611 432.652 741.611 416.622V31.3455C741.611 15.3162 728.595 2.32187 712.54 2.32187Z" fill="url(#paint0_linear)"/>
<path opacity="0.1" d="M676.797 18.9268H140.179C136.968 18.9268 134.365 21.5257 134.365 24.7316V423.813C134.365 427.019 136.968 429.618 140.179 429.618H676.797C680.008 429.618 682.611 427.019 682.611 423.813V24.7316C682.611 21.5257 680.008 18.9268 676.797 18.9268Z" fill="#2A2A2A"/>
<mask id="mask0" mask-type="alpha" maskUnits="userSpaceOnUse" x="95" y="22" width="625" height="403">
<path d="M709.981 22.4097H105.293C100.156 22.4097 95.9905 26.5679 95.9905 31.6973V414.809C95.9905 419.938 100.156 424.096 105.293 424.096H709.981C715.119 424.096 719.284 419.938 719.284 414.809V31.6973C719.284 26.5679 715.119 22.4097 709.981 22.4097Z" fill="white"/>
</mask>
<g mask="url(#mask0)">
<path d="M709.981 22.4097H105.293C100.156 22.4097 95.9905 26.5679 95.9905 31.6973V414.809C95.9905 419.938 100.156 424.096 105.293 424.096H709.981C715.119 424.096 719.284 419.938 719.284 414.809V31.6973C719.284 26.5679 715.119 22.4097 709.981 22.4097Z" fill="#E8EAF6"/>
<path fill-rule="evenodd" clip-rule="evenodd" d="M91.8857 22.6384H727.971V91.1341H91.8857V22.6384Z" fill="#5267DF"/>
<path opacity="0.245" d="M140.726 76.0419C151.002 76.0419 159.332 67.7255 159.332 57.4667C159.332 47.208 151.002 38.8916 140.726 38.8916C130.45 38.8916 122.12 47.208 122.12 57.4667C122.12 67.7255 130.45 76.0419 140.726 76.0419Z" fill="white"/>
<path opacity="0.104" d="M676.805 76.0419C687.081 76.0419 695.411 67.7255 695.411 57.4667C695.411 47.208 687.081 38.8916 676.805 38.8916C666.529 38.8916 658.199 47.208 658.199 57.4667C658.199 67.7255 666.529 76.0419 676.805 76.0419Z" fill="white"/>
<path opacity="0.75" d="M312.829 45.8573H180.263C178.336 45.8573 176.775 47.4166 176.775 49.3401C176.775 51.2637 178.336 52.823 180.263 52.823H312.829C314.756 52.823 316.318 51.2637 316.318 49.3401C316.318 47.4166 314.756 45.8573 312.829 45.8573Z" fill="white"/>
<path opacity="0.25" d="M247.709 62.1105H180.263C178.336 62.1105 176.775 63.6698 176.775 65.5933C176.775 67.5169 178.336 69.0762 180.263 69.0762H247.709C249.636 69.0762 251.198 67.5169 251.198 65.5933C251.198 63.6698 249.636 62.1105 247.709 62.1105Z" fill="white"/>
<path d="M456.478 130.378H171.577C166.439 130.378 162.274 134.536 162.274 139.665V487.948C162.274 493.078 166.439 497.236 171.577 497.236H456.478C461.615 497.236 465.78 493.078 465.78 487.948V139.665C465.78 134.536 461.615 130.378 456.478 130.378Z" fill="white"/>
<path d="M644.861 130.378H514.621C509.483 130.378 505.318 134.536 505.318 139.665V487.948C505.318 493.078 509.483 497.236 514.621 497.236H644.861C649.999 497.236 654.164 493.078 654.164 487.948V139.665C654.164 134.536 649.999 130.378 644.861 130.378Z" fill="white"/>
<path opacity="0.5" d="M389.578 174.722H257.012C255.085 174.722 253.523 176.281 253.523 178.205C253.523 180.128 255.085 181.688 257.012 181.688H389.578C391.505 181.688 393.067 180.128 393.067 178.205C393.067 176.281 391.505 174.722 389.578 174.722Z" fill="#242A45"/>
</g>
<path d="M217.475 204.907C227.75 204.907 236.081 196.59 236.081 186.332C236.081 176.073 227.75 167.756 217.475 167.756C207.199 167.756 198.869 176.073 198.869 186.332C198.869 196.59 207.199 204.907 217.475 204.907Z" fill="#F98E5D"/>
<path opacity="0.25" d="M627.965 156.147H532.61C530.683 156.147 529.122 157.706 529.122 159.63C529.122 161.553 530.683 163.113 532.61 163.113H627.965C629.891 163.113 631.453 161.553 631.453 159.63C631.453 157.706 629.891 156.147 627.965 156.147Z" fill="#242A45"/>
<path opacity="0.25" d="M627.965 179.366H532.61C530.683 179.366 529.122 180.925 529.122 182.849C529.122 184.772 530.683 186.332 532.61 186.332H627.965C629.891 186.332 631.453 184.772 631.453 182.849C631.453 180.925 629.891 179.366 627.965 179.366Z" fill="#242A45"/>
<path opacity="0.25" d="M627.965 202.585H532.61C530.683 202.585 529.122 204.144 529.122 206.068C529.122 207.991 530.683 209.55 532.61 209.55H627.965C629.891 209.55 631.453 207.991 631.453 206.068C631.453 204.144 629.891 202.585 627.965 202.585Z" fill="#242A45"/>
<path opacity="0.25" d="M627.965 225.804H532.61C530.683 225.804 529.122 227.363 529.122 229.286C529.122 231.21 530.683 232.769 532.61 232.769H627.965C629.891 232.769 631.453 231.21 631.453 229.286C631.453 227.363 629.891 225.804 627.965 225.804Z" fill="#242A45"/>
<path opacity="0.25" d="M627.965 265.276H532.61C530.683 265.276 529.122 266.835 529.122 268.759C529.122 270.682 530.683 272.241 532.61 272.241H627.965C629.891 272.241 631.453 270.682 631.453 268.759C631.453 266.835 629.891 265.276 627.965 265.276Z" fill="#242A45"/>
<path opacity="0.25" d="M627.965 288.495H532.61C530.683 288.495 529.122 290.054 529.122 291.977C529.122 293.901 530.683 295.46 532.61 295.46H627.965C629.891 295.46 631.453 293.901 631.453 291.977C631.453 290.054 629.891 288.495 627.965 288.495Z" fill="#242A45"/>
<path opacity="0.25" d="M627.965 311.714H532.61C530.683 311.714 529.122 313.273 529.122 315.196C529.122 317.12 530.683 318.679 532.61 318.679H627.965C629.891 318.679 631.453 317.12 631.453 315.196C631.453 313.273 629.891 311.714 627.965 311.714Z" fill="#242A45"/>
<path opacity="0.25" d="M324.458 190.975H257.012C255.085 190.975 253.523 192.535 253.523 194.458C253.523 196.382 255.085 197.941 257.012 197.941H324.458C326.385 197.941 327.947 196.382 327.947 194.458C327.947 192.535 326.385 190.975 324.458 190.975Z" fill="#242A45"/>
<path d="M217.475 269.92C227.75 269.92 236.081 261.603 236.081 251.344C236.081 241.086 227.75 232.769 217.475 232.769C207.199 232.769 198.869 241.086 198.869 251.344C198.869 261.603 207.199 269.92 217.475 269.92Z" fill="#6AC6D6"/>
<path opacity="0.5" d="M389.578 239.735H257.012C255.085 239.735 253.523 241.294 253.523 243.218C253.523 245.141 255.085 246.701 257.012 246.701H389.578C391.505 246.701 393.067 245.141 393.067 243.218C393.067 241.294 391.505 239.735 389.578 239.735Z" fill="#242A45"/>
<path opacity="0.25" d="M324.458 255.988H257.012C255.085 255.988 253.523 257.548 253.523 259.471C253.523 261.395 255.085 262.954 257.012 262.954H324.458C326.385 262.954 327.947 261.395 327.947 259.471C327.947 257.548 326.385 255.988 324.458 255.988Z" fill="#242A45"/>
<path d="M217.475 334.932C227.75 334.932 236.081 326.616 236.081 316.357C236.081 306.099 227.75 297.782 217.475 297.782C207.199 297.782 198.869 306.099 198.869 316.357C198.869 326.616 207.199 334.932 217.475 334.932Z" fill="#A47ED4"/>
<path opacity="0.5" d="M389.578 304.748H257.012C255.085 304.748 253.523 306.307 253.523 308.231C253.523 310.154 255.085 311.713 257.012 311.713H389.578C391.505 311.713 393.067 310.154 393.067 308.231C393.067 306.307 391.505 304.748 389.578 304.748Z" fill="#242A45"/>
<path opacity="0.25" d="M324.458 321.001H257.012C255.085 321.001 253.523 322.56 253.523 324.484C253.523 326.407 255.085 327.967 257.012 327.967H324.458C326.385 327.967 327.947 326.407 327.947 324.484C327.947 322.56 326.385 321.001 324.458 321.001Z" fill="#242A45"/>
<path d="M217.475 399.945C227.75 399.945 236.081 391.629 236.081 381.37C236.081 371.111 227.75 362.795 217.475 362.795C207.199 362.795 198.869 371.111 198.869 381.37C198.869 391.629 207.199 399.945 217.475 399.945Z" fill="#EC7878"/>
<path opacity="0.5" d="M389.578 369.761H257.012C255.085 369.761 253.523 371.32 253.523 373.244C253.523 375.167 255.085 376.726 257.012 376.726H389.578C391.505 376.726 393.067 375.167 393.067 373.244C393.067 371.32 391.505 369.761 389.578 369.761Z" fill="#242A45"/>
<path opacity="0.25" d="M324.458 386.014H257.012C255.085 386.014 253.523 387.573 253.523 389.497C253.523 391.42 255.085 392.98 257.012 392.98H324.458C326.385 392.98 327.947 391.42 327.947 389.497C327.947 387.573 326.385 386.014 324.458 386.014Z" fill="#242A45"/>
</g>
<defs>
<filter id="filter0_d" x="31.5356" y="-10" width="752.134" height="526.963" filterUnits="userSpaceOnUse" color-interpolation-filters="sRGB">
<feFlood flood-opacity="0" result="BackgroundImageFix"/>
<feColorMatrix in="SourceAlpha" type="matrix" values="0 0 0 0 0 0 0 0 0 0 0 0 0 0 0 0 0 0 127 0"/>
<feOffset dy="30"/>
<feGaussianBlur stdDeviation="20"/>
<feColorMatrix type="matrix" values="0 0 0 0 0.182433 0 0 0 0 0.230633 0 0 0 0 0.506058 0 0 0 0.20012 0"/>
<feBlend mode="normal" in2="BackgroundImageFix" result="effect1_dropShadow"/>
<feBlend mode="normal" in="SourceGraphic" in2="effect1_dropShadow" result="shape"/>
</filter>
<linearGradient id="paint0_linear" x1="735.021" y1="320.074" x2="201.56" y2="-35.2611" gradientUnits="userSpaceOnUse">
<stop stop-color="#151515"/>
<stop offset="1" stop-color="#3D3D3D"/>
</linearGradient>
<clipPath id="clip0">
<rect width="764" height="541" fill="white"/>
</clipPath>
</defs>
</svg>
