<svg width="1121" height="556" viewBox="0 0 1121 556" fill="none" xmlns="http://www.w3.org/2000/svg">
<path d="M0 105H565.5C690.04 105 791 205.96 791 330.5C791 455.04 690.04 556 565.5 556H0V105Z" fill="#5368DF"/>
<mask id="mask0" mask-type="alpha" maskUnits="userSpaceOnUse" x="254" y="0" width="701" height="453">
<path d="M944.537 0H264.463C258.684 0 254 4.68936 254 10.474V442.526C254 448.311 258.684 453 264.463 453H944.537C950.316 453 955 448.311 955 442.526V10.474C955 4.68936 950.316 0 944.537 0Z" fill="white"/>
</mask>
<g mask="url(#mask0)">
</g>
<mask id="mask1" mask-type="alpha" maskUnits="userSpaceOnUse" x="484" y="0" width="467" height="461">
<path d="M939.761 0H494.661C488.773 0 484 4.76989 484 10.6538V450.125C484 456.009 488.773 460.779 494.661 460.779H939.761C945.649 460.779 950.423 456.009 950.423 450.125V10.6538C950.423 4.76989 945.649 0 939.761 0Z" fill="white"/>
</mask>
<g mask="url(#mask1)">
<path d="M939.761 0H494.661C488.773 0 484 4.76989 484 10.6538V450.125C484 456.009 488.773 460.779 494.661 460.779H939.761C945.649 460.779 950.423 456.009 950.423 450.125V10.6538C950.423 4.76989 945.649 0 939.761 0Z" fill="#E8EAF6"/>
<path fill-rule="evenodd" clip-rule="evenodd" d="M479.296 0.262353H1208.25V78.8345H479.296V0.262353Z" fill="#242A45"/>
<path opacity="0.245" d="M535.267 61.522C547.042 61.522 556.589 51.9822 556.589 40.2143C556.589 28.4464 547.042 18.9066 535.267 18.9066C523.491 18.9066 513.944 28.4464 513.944 40.2143C513.944 51.9822 523.491 61.522 535.267 61.522Z" fill="white"/>
<path opacity="0.75" d="M732.497 26.897H580.576C578.368 26.897 576.578 28.6857 576.578 30.8922C576.578 33.0986 578.368 34.8874 580.576 34.8874H732.497C734.705 34.8874 736.495 33.0986 736.495 30.8922C736.495 28.6857 734.705 26.897 732.497 26.897Z" fill="white"/>
<path opacity="0.25" d="M657.869 45.5412H580.576C578.368 45.5412 576.578 47.3299 576.578 49.5364C576.578 51.7429 578.368 53.5316 580.576 53.5316H657.869C660.077 53.5316 661.867 51.7429 661.867 49.5364C661.867 47.3299 660.077 45.5412 657.869 45.5412Z" fill="white"/>
<g filter="url(#filter0_d)">
<path d="M775.847 183.779H530.642C524.754 183.779 519.981 188.549 519.981 194.433V512.716C519.981 518.6 524.754 523.37 530.642 523.37H775.847C781.735 523.37 786.508 518.6 786.508 512.716V194.433C786.508 188.549 781.735 183.779 775.847 183.779Z" fill="black"/>
</g>
<path d="M775.847 183.779H530.642C524.754 183.779 519.981 188.549 519.981 194.433V512.716C519.981 518.6 524.754 523.37 530.642 523.37H775.847C781.735 523.37 786.508 518.6 786.508 512.716V194.433C786.508 188.549 781.735 183.779 775.847 183.779Z" fill="white"/>
<path opacity="0.5" d="M742.531 230.389H615.509C613.301 230.389 611.511 232.178 611.511 234.385C611.511 236.591 613.301 238.38 615.509 238.38H742.531C744.739 238.38 746.529 236.591 746.529 234.385C746.529 232.178 744.739 230.389 742.531 230.389Z" fill="#242A45"/>
<path d="M571.954 265.014C583.73 265.014 593.276 255.475 593.276 243.707C593.276 231.939 583.73 222.399 571.954 222.399C560.178 222.399 550.632 231.939 550.632 243.707C550.632 255.475 560.178 265.014 571.954 265.014Z" fill="#5267DF"/>
<path opacity="0.25" d="M679.523 249.034H615.509C613.301 249.034 611.511 250.822 611.511 253.029C611.511 255.235 613.301 257.024 615.509 257.024H679.523C681.731 257.024 683.521 255.235 683.521 253.029C683.521 250.822 681.731 249.034 679.523 249.034Z" fill="#242A45"/>
<path d="M571.954 339.591C583.73 339.591 593.276 330.052 593.276 318.284C593.276 306.516 583.73 296.976 571.954 296.976C560.178 296.976 550.632 306.516 550.632 318.284C550.632 330.052 560.178 339.591 571.954 339.591Z" fill="#5267DF"/>
<path opacity="0.5" d="M742.531 304.966H615.509C613.301 304.966 611.511 306.755 611.511 308.962C611.511 311.168 613.301 312.957 615.509 312.957H742.531C744.739 312.957 746.529 311.168 746.529 308.962C746.529 306.755 744.739 304.966 742.531 304.966Z" fill="#242A45"/>
<path opacity="0.25" d="M679.523 323.611H615.509C613.301 323.611 611.511 325.399 611.511 327.606C611.511 329.812 613.301 331.601 615.509 331.601H679.523C681.731 331.601 683.521 329.812 683.521 327.606C683.521 325.399 681.731 323.611 679.523 323.611Z" fill="#242A45"/>
<path d="M571.954 414.168C583.73 414.168 593.276 404.628 593.276 392.861C593.276 381.093 583.73 371.553 571.954 371.553C560.178 371.553 550.632 381.093 550.632 392.861C550.632 404.628 560.178 414.168 571.954 414.168Z" fill="#5267DF"/>
<path opacity="0.5" d="M742.531 379.543H615.509C613.301 379.543 611.511 381.332 611.511 383.538C611.511 385.745 613.301 387.534 615.509 387.534H742.531C744.739 387.534 746.529 385.745 746.529 383.538C746.529 381.332 744.739 379.543 742.531 379.543Z" fill="#242A45"/>
<path opacity="0.25" d="M679.523 398.188H615.509C613.301 398.188 611.511 399.976 611.511 402.183C611.511 404.389 613.301 406.178 615.509 406.178H679.523C681.731 406.178 683.521 404.389 683.521 402.183C683.521 399.976 681.731 398.188 679.523 398.188Z" fill="#242A45"/>
<path d="M571.954 488.745C583.73 488.745 593.276 479.205 593.276 467.438C593.276 455.67 583.73 446.13 571.954 446.13C560.178 446.13 550.632 455.67 550.632 467.438C550.632 479.205 560.178 488.745 571.954 488.745Z" fill="#5267DF"/>
<path opacity="0.5" d="M742.531 454.12H615.509C613.301 454.12 611.511 455.909 611.511 458.115C611.511 460.322 613.301 462.111 615.509 462.111H742.531C744.739 462.111 746.529 460.322 746.529 458.115C746.529 455.909 744.739 454.12 742.531 454.12Z" fill="#242A45"/>
<g filter="url(#filter1_d)">
<g filter="url(#filter2_d)">
<path d="M1074.36 183.779H829.153C823.265 183.779 818.492 188.549 818.492 194.433V512.716C818.492 518.6 823.265 523.37 829.153 523.37H1074.36C1080.25 523.37 1085.02 518.6 1085.02 512.716V194.433C1085.02 188.549 1080.25 183.779 1074.36 183.779Z" fill="black"/>
</g>
<path d="M1074.36 183.779H829.153C823.265 183.779 818.492 188.549 818.492 194.433V512.716C818.492 518.6 823.265 523.37 829.153 523.37H1074.36C1080.25 523.37 1085.02 518.6 1085.02 512.716V194.433C1085.02 188.549 1080.25 183.779 1074.36 183.779Z" fill="white"/>
<path opacity="0.5" d="M1041.04 230.389H914.019C911.811 230.389 910.021 232.178 910.021 234.385C910.021 236.591 911.811 238.38 914.019 238.38H1041.04C1043.25 238.38 1045.04 236.591 1045.04 234.385C1045.04 232.178 1043.25 230.389 1041.04 230.389Z" fill="#242A45"/>
<path d="M870.464 265.014C882.24 265.014 891.787 255.475 891.787 243.707C891.787 231.939 882.24 222.399 870.464 222.399C858.688 222.399 849.142 231.939 849.142 243.707C849.142 255.475 858.688 265.014 870.464 265.014Z" fill="#5267DF"/>
<path opacity="0.25" d="M978.033 249.034H914.019C911.811 249.034 910.021 250.822 910.021 253.029C910.021 255.235 911.811 257.024 914.019 257.024H978.033C980.241 257.024 982.031 255.235 982.031 253.029C982.031 250.822 980.241 249.034 978.033 249.034Z" fill="#242A45"/>
<path d="M870.464 339.591C882.24 339.591 891.787 330.052 891.787 318.284C891.787 306.516 882.24 296.976 870.464 296.976C858.688 296.976 849.142 306.516 849.142 318.284C849.142 330.052 858.688 339.591 870.464 339.591Z" fill="#FA5959"/>
<path opacity="0.5" d="M1041.04 304.966H914.019C911.811 304.966 910.021 306.755 910.021 308.962C910.021 311.168 911.811 312.957 914.019 312.957H1041.04C1043.25 312.957 1045.04 311.168 1045.04 308.962C1045.04 306.755 1043.25 304.966 1041.04 304.966Z" fill="#242A45"/>
<path opacity="0.25" d="M978.033 323.611H914.019C911.811 323.611 910.021 325.399 910.021 327.606C910.021 329.812 911.811 331.601 914.019 331.601H978.033C980.241 331.601 982.031 329.812 982.031 327.606C982.031 325.399 980.241 323.611 978.033 323.611Z" fill="#242A45"/>
<path d="M870.464 414.168C882.24 414.168 891.787 404.628 891.787 392.861C891.787 381.093 882.24 371.553 870.464 371.553C858.688 371.553 849.142 381.093 849.142 392.861C849.142 404.628 858.688 414.168 870.464 414.168Z" fill="#5267DF"/>
<path opacity="0.5" d="M1041.04 379.543H914.019C911.811 379.543 910.021 381.332 910.021 383.538C910.021 385.745 911.811 387.534 914.019 387.534H1041.04C1043.25 387.534 1045.04 385.745 1045.04 383.538C1045.04 381.332 1043.25 379.543 1041.04 379.543Z" fill="#242A45"/>
<path opacity="0.25" d="M978.033 398.188H914.019C911.811 398.188 910.021 399.976 910.021 402.183C910.021 404.389 911.811 406.178 914.019 406.178H978.033C980.241 406.178 982.031 404.389 982.031 402.183C982.031 399.976 980.241 398.188 978.033 398.188Z" fill="#242A45"/>
<path d="M870.464 488.745C882.24 488.745 891.787 479.205 891.787 467.438C891.787 455.67 882.24 446.13 870.464 446.13C858.688 446.13 849.142 455.67 849.142 467.438C849.142 479.205 858.688 488.745 870.464 488.745Z" fill="#5267DF"/>
<path opacity="0.5" d="M1041.04 454.12H914.019C911.811 454.12 910.021 455.909 910.021 458.115C910.021 460.322 911.811 462.111 914.019 462.111H1041.04C1043.25 462.111 1045.04 460.322 1045.04 458.115C1045.04 455.909 1043.25 454.12 1041.04 454.12Z" fill="#242A45"/>
</g>
<path d="M825.155 113.197H530.642C524.754 113.197 519.981 117.967 519.981 123.851V147.822C519.981 153.706 524.754 158.476 530.642 158.476H825.155C831.043 158.476 835.816 153.706 835.816 147.822V123.851C835.816 117.967 831.043 113.197 825.155 113.197Z" fill="white"/>
<path d="M979.741 314.288C1029.05 314.288 1069.03 274.341 1069.03 225.063C1069.03 175.784 1029.05 135.837 979.741 135.837C930.429 135.837 890.454 175.784 890.454 225.063C890.454 274.341 930.429 314.288 979.741 314.288Z" fill="#495DCF" fill-opacity="0.2" stroke="#5267DF" stroke-width="20"/>
</g>
<defs>
<filter id="filter0_d" x="509.981" y="178.779" width="286.527" height="359.591" filterUnits="userSpaceOnUse" color-interpolation-filters="sRGB">
<feFlood flood-opacity="0" result="BackgroundImageFix"/>
<feColorMatrix in="SourceAlpha" type="matrix" values="0 0 0 0 0 0 0 0 0 0 0 0 0 0 0 0 0 0 127 0"/>
<feOffset dy="5"/>
<feGaussianBlur stdDeviation="5"/>
<feColorMatrix type="matrix" values="0 0 0 0 0.285333 0 0 0 0 0.363695 0 0 0 0 0.811481 0 0 0 0.0830693 0"/>
<feBlend mode="normal" in2="BackgroundImageFix" result="effect1_dropShadow"/>
<feBlend mode="normal" in="SourceGraphic" in2="effect1_dropShadow" result="shape"/>
</filter>
<filter id="filter1_d" x="808.492" y="178.779" width="286.527" height="359.591" filterUnits="userSpaceOnUse" color-interpolation-filters="sRGB">
<feFlood flood-opacity="0" result="BackgroundImageFix"/>
<feColorMatrix in="SourceAlpha" type="matrix" values="0 0 0 0 0 0 0 0 0 0 0 0 0 0 0 0 0 0 127 0"/>
<feOffset dy="5"/>
<feGaussianBlur stdDeviation="5"/>
<feColorMatrix type="matrix" values="0 0 0 0 0.285333 0 0 0 0 0.363695 0 0 0 0 0.811481 0 0 0 0.0830693 0"/>
<feBlend mode="normal" in2="BackgroundImageFix" result="effect1_dropShadow"/>
<feBlend mode="normal" in="SourceGraphic" in2="effect1_dropShadow" result="shape"/>
</filter>
<filter id="filter2_d" x="808.492" y="178.779" width="286.527" height="359.591" filterUnits="userSpaceOnUse" color-interpolation-filters="sRGB">
<feFlood flood-opacity="0" result="BackgroundImageFix"/>
<feColorMatrix in="SourceAlpha" type="matrix" values="0 0 0 0 0 0 0 0 0 0 0 0 0 0 0 0 0 0 127 0"/>
<feOffset dy="5"/>
<feGaussianBlur stdDeviation="5"/>
<feColorMatrix type="matrix" values="0 0 0 0 0.285333 0 0 0 0 0.363695 0 0 0 0 0.811481 0 0 0 0.0830693 0"/>
<feBlend mode="normal" in2="BackgroundImageFix" result="effect1_dropShadow"/>
<feBlend mode="normal" in="SourceGraphic" in2="effect1_dropShadow" result="shape"/>
</filter>
</defs>
</svg>
