<svg width="955" height="556" viewBox="0 0 955 556" fill="none" xmlns="http://www.w3.org/2000/svg">
<g clip-path="url(#clip0)">
<path d="M0 105H565.5C690.04 105 791 205.96 791 330.5C791 455.04 690.04 556 565.5 556H0V105Z" fill="#5368DF"/>
<mask id="mask0" mask-type="alpha" maskUnits="userSpaceOnUse" x="254" y="0" width="701" height="453">
<path d="M944.537 0H264.463C258.684 0 254 4.68936 254 10.474V442.526C254 448.311 258.684 453 264.463 453H944.537C950.316 453 955 448.311 955 442.526V10.474C955 4.68936 950.316 0 944.537 0Z" fill="white"/>
</mask>
<g mask="url(#mask0)">
</g>
<mask id="mask1" mask-type="alpha" maskUnits="userSpaceOnUse" x="499" y="0" width="465" height="459">
<path d="M952.927 0H509.618C503.754 0 499 4.75049 499 10.6105V448.295C499 454.155 503.754 458.905 509.618 458.905H952.927C958.792 458.905 963.545 454.155 963.545 448.295V10.6105C963.545 4.75049 958.792 0 952.927 0Z" fill="white"/>
</mask>
<g mask="url(#mask1)">
<path d="M952.927 0H509.618C503.754 0 499 4.75049 499 10.6105V448.295C499 454.155 503.754 458.905 509.618 458.905H952.927C958.792 458.905 963.545 454.155 963.545 448.295V10.6105C963.545 4.75049 958.792 0 952.927 0Z" fill="#E8EAF6"/>
<path fill-rule="evenodd" clip-rule="evenodd" d="M494.315 0.261276H1220.33V78.5139H494.315V0.261276Z" fill="#242A45"/>
<path opacity="0.245" d="M550.06 61.2718C561.789 61.2718 571.296 51.7708 571.296 40.0507C571.296 28.3307 561.789 18.8297 550.06 18.8297C538.332 18.8297 528.824 28.3307 528.824 40.0507C528.824 51.7708 538.332 61.2718 550.06 61.2718Z" fill="white"/>
<path opacity="0.75" d="M746.496 26.7876H595.187C592.988 26.7876 591.206 28.569 591.206 30.7665C591.206 32.9641 592.988 34.7455 595.187 34.7455H746.496C748.696 34.7455 750.478 32.9641 750.478 30.7665C750.478 28.569 748.696 26.7876 746.496 26.7876Z" fill="white"/>
<path opacity="0.25" d="M672.169 45.356H595.187C592.988 45.356 591.206 47.1375 591.206 49.335C591.206 51.5325 592.988 53.3139 595.187 53.3139H672.169C674.368 53.3139 676.151 51.5325 676.151 49.335C676.151 47.1375 674.368 45.356 672.169 45.356Z" fill="white"/>
<path d="M838.782 112.737H545.455C539.59 112.737 534.836 117.487 534.836 123.347V147.221C534.836 153.081 539.59 157.832 545.455 157.832H838.782C844.646 157.832 849.4 153.081 849.4 147.221V123.347C849.4 117.487 844.646 112.737 838.782 112.737Z" fill="white"/>
<path d="M838.782 176.4H545.455C539.59 176.4 534.836 181.15 534.836 187.011V210.884C534.836 216.744 539.59 221.495 545.455 221.495H838.782C844.646 221.495 849.4 216.744 849.4 210.884V187.011C849.4 181.15 844.646 176.4 838.782 176.4Z" fill="white"/>
<path d="M838.782 240.063H545.455C539.59 240.063 534.836 244.814 534.836 250.674V274.547C534.836 280.407 539.59 285.158 545.455 285.158H838.782C844.646 285.158 849.4 280.407 849.4 274.547V250.674C849.4 244.814 844.646 240.063 838.782 240.063Z" fill="white"/>
<path d="M838.782 303.726H545.455C539.59 303.726 534.836 308.477 534.836 314.337V338.211C534.836 344.071 539.59 348.821 545.455 348.821H838.782C844.646 348.821 849.4 344.071 849.4 338.211V314.337C849.4 308.477 844.646 303.726 838.782 303.726Z" fill="white"/>
<path d="M838.782 367.39H545.455C539.59 367.39 534.836 372.14 534.836 378V401.874C534.836 407.734 539.59 412.484 545.455 412.484H838.782C844.646 412.484 849.4 407.734 849.4 401.874V378C849.4 372.14 844.646 367.39 838.782 367.39Z" fill="white"/>
<mask id="mask2" mask-type="alpha" maskUnits="userSpaceOnUse" x="618" y="110" width="465" height="393">
<path d="M1083 110.148H618.745V502.674H1083V110.148Z" fill="white"/>
</mask>
<g mask="url(#mask2)">
<path fill-rule="evenodd" clip-rule="evenodd" d="M620.171 442.114C621.06 444.791 622.447 447.417 624.383 449.986C657.833 494.383 782.828 509.182 906.062 500.139C970.403 495.415 1015.79 467.61 1044.47 442.113C1050.69 436.587 1056.61 430.733 1062.2 424.576C1068.4 417.752 1073.24 410.172 1076.68 402.168C1086.83 378.589 1084.88 351.349 1069.89 329.007C1057.17 310.073 1039.73 296.083 1030.71 280.54C1013.55 250.939 1104.29 176.111 1045.24 128.836C1024.4 112.145 979.993 108.294 931.545 110.883C872.577 114.037 807.624 126.739 771.895 137.469C697.95 159.667 651.671 191.821 641.107 227.998C630.544 264.174 658.774 280.544 683.42 315.076C706.641 347.605 605.705 398.63 620.171 442.114" fill="#3A499E"/>
<path fill-rule="evenodd" clip-rule="evenodd" d="M745.144 230.609L767.688 226.8L771.091 247.754L743.218 255.979L745.144 230.609Z" fill="#306299"/>
<path fill-rule="evenodd" clip-rule="evenodd" d="M768.436 228.283C768.436 228.283 785.924 227.821 804.273 220.168L795.651 236.421L770.76 244.042L768.436 228.283Z" fill="#FA9E89"/>
<mask id="mask3" mask-type="alpha" maskUnits="userSpaceOnUse" x="870" y="112" width="211" height="293">
<path d="M1080.35 112.801H870.869V404.383H1080.35V112.801Z" fill="white"/>
</mask>
<g mask="url(#mask3)">
<path opacity="0.152" fill-rule="evenodd" clip-rule="evenodd" d="M871.876 181.952C882.643 235.215 1065.67 316.825 1074.47 404.383C1083.91 380.838 1082.09 353.641 1068.13 331.332C1056.3 312.426 1040.06 298.457 1031.67 282.936C1015.69 253.383 1100.17 178.664 1045.2 131.46C1025.79 114.795 984.461 110.949 939.362 113.535C925.632 116.671 862.162 133.869 871.876 181.952Z" fill="white"/>
</g>
<path opacity="0.149" fill-rule="evenodd" clip-rule="evenodd" d="M616.039 432.379C614.732 442.812 619.145 450.067 620.87 452.575C650.64 495.908 812.653 510.353 922.334 501.526C979.6 496.916 1026.53 467.42 1055.13 434.919L616.039 432.379Z" fill="black"/>
<path opacity="0.128" fill-rule="evenodd" clip-rule="evenodd" d="M985.277 437.435C985.277 437.435 998.652 438.244 998.446 442.289C998.24 446.334 989.804 455.231 989.804 455.231L1002.43 450.715L1040.53 449.266L1036.41 452.806C1036.41 452.806 1005.72 454.221 1004.35 455.299C1002.97 456.377 985.414 469.591 982.397 470.13C979.379 470.67 787.702 470.428 787.702 470.428C787.702 470.428 767.981 471.209 764.688 465.142C761.397 459.075 749.462 459.478 746.169 464.737C742.877 469.996 743.334 489.41 743.334 489.41C743.334 489.41 734.318 487.059 733.822 486.849C702.545 473.635 667.564 432.379 667.564 432.379L985.277 437.435V437.435Z" fill="black"/>
<path fill-rule="evenodd" clip-rule="evenodd" d="M770.437 398.004L762.44 443.364L761.114 450.882L764.023 451.309L764.23 451.341L770.585 452.274C770.585 452.274 791.783 400.091 793.587 387.567C795.393 375.042 760.213 324.947 760.213 324.947L722.03 328.194C721.019 339.095 736.29 359.642 749.938 375.637C760.69 388.235 770.437 398.004 770.437 398.004" fill="#F4F2F9"/>
<path fill-rule="evenodd" clip-rule="evenodd" d="M769.923 395.952L760.795 448.695L763.644 449.121L763.74 449.621L763.847 449.154C765.008 444.074 778.633 399.103 779.047 389.937C779.489 380.22 760.429 350.147 760.429 350.147L749.855 373.642C760.38 386.207 769.923 395.95 769.923 395.95" fill="#E0DFEA"/>
<path fill-rule="evenodd" clip-rule="evenodd" d="M719.327 330.253L757.376 327.087L759.146 263.786C759.146 263.786 749.855 230.779 739.678 230.779C733.635 230.779 727.752 233.172 724.149 238.995C721.69 242.978 720.296 248.571 720.655 256.1C721.464 273.046 719.686 320.966 719.371 329.076C719.345 329.841 719.327 330.253 719.327 330.253" fill="#6397D9"/>
<path fill-rule="evenodd" clip-rule="evenodd" d="M729.793 325.313L729.079 249.955L737.909 232.023L727.606 230.779L723.983 235.036C721.608 239.019 720.263 244.612 720.609 252.138C721.391 269.08 719.631 318.165 719.327 326.274L729.793 325.313V325.313Z" fill="#8BBFF7"/>
<path fill-rule="evenodd" clip-rule="evenodd" d="M729.946 252L757.841 305.053L758.565 281.191L759.146 261.829L735.886 252H729.946Z" fill="#306299"/>
<path fill-rule="evenodd" clip-rule="evenodd" d="M801.181 468.189H971.947C978.303 468.189 983.456 463.006 983.456 456.611V164.105C983.456 157.71 978.303 152.526 971.947 152.526H801.18C794.824 152.526 789.671 157.71 789.671 164.105V456.611C789.671 463.006 794.824 468.189 801.18 468.189" fill="white"/>
<path fill-rule="evenodd" clip-rule="evenodd" d="M800.291 194.027V311.3C800.291 313.711 802.223 315.663 804.609 315.663H968.519C970.904 315.663 972.836 313.711 972.836 311.3V194.027C972.836 191.615 970.904 189.663 968.519 189.663H804.609C802.223 189.663 800.291 191.615 800.291 194.027Z" fill="#E4DCF1"/>
<path fill-rule="evenodd" clip-rule="evenodd" d="M885.432 221.495L887.491 223.064L891.873 242.124L891.779 245.264L884.841 245.368C884.37 245.375 883.895 245.282 883.474 245.037C881.49 243.872 880.643 240.627 881.738 237.751C882.327 236.205 883.836 233.467 884.011 232.258C884.428 229.361 885.432 221.495 885.432 221.495" fill="#8E2B43"/>
<path fill-rule="evenodd" clip-rule="evenodd" d="M849.4 319.642L921.37 319.366L923.752 319.358C923.752 319.358 932.362 278.708 918.422 263.042C915.027 259.23 910.614 256.419 905.805 254.593C890.843 248.894 872.022 252.663 867.987 265.158C862.657 281.672 849.4 319.642 849.4 319.642Z" fill="#4EC9B4"/>
<path fill-rule="evenodd" clip-rule="evenodd" d="M905.358 255.301C905.358 255.301 902.418 263.294 895.93 264.975C889.442 266.658 882.008 260.699 882.618 253.759C882.618 253.759 888.835 252.848 889.847 249.833C891.079 246.172 890.253 246.047 890.253 246.047C890.253 246.047 887.82 241.419 887.01 238.055C886.199 234.69 887.414 221.649 893.091 220.389C896.681 219.59 902.418 220.809 906.473 226.698C906.473 226.698 904.445 238.055 901.607 243.524C898.768 248.992 897.349 251.516 905.358 255.301Z" fill="#FA9E89"/>
<path opacity="0.184" fill-rule="evenodd" clip-rule="evenodd" d="M804.494 153.87L980.8 400.864V456.893C980.8 463.132 975.889 468.189 969.833 468.189H810.342C803.325 468.189 797.636 462.33 797.636 455.1V158.928C797.636 155.044 800.729 153.682 804.494 153.87" fill="#F4F2F9"/>
<path fill-rule="evenodd" clip-rule="evenodd" d="M857.364 295.028L848.097 254.653L833.473 257.061L847.653 315.663L857.364 295.028Z" fill="#4EC9B4"/>
<path fill-rule="evenodd" clip-rule="evenodd" d="M845.153 253.508L844.356 249.389C844.356 249.389 846.745 247.818 846.347 245.464C845.949 243.11 846.745 237.616 846.745 237.616C846.745 237.616 845.475 236.758 844.655 238.303C844.071 239.403 843.162 241.933 843.162 241.933C843.162 241.933 840.114 233.755 839.411 231.601C839.112 230.685 838.811 229.258 838.117 229.475C837.752 229.589 837.884 230.424 837.947 231.239C838.133 233.685 839.179 237.584 839.179 237.584L838.648 237.895L836.44 230.897C836.344 230.557 836.184 230.043 835.827 230.015C835.511 229.988 835.197 230.161 835.197 230.946C835.197 232.516 836.889 239.006 836.889 239.006L836.466 239.297L833.897 233.623C833.721 233.194 833.084 233.231 832.975 233.681C832.889 234.036 832.914 234.543 833.205 235.262C834.001 237.225 834.797 240.363 834.797 240.363L834.598 240.592L833.205 237.714C832.955 237.254 832.343 236.958 832.165 237.449C831.916 238.136 834.1 244.041 834.1 244.435C834.1 244.827 835.595 250.172 837.188 250.565C838.78 250.958 838.88 254.653 838.88 254.653L845.153 253.508V253.508Z" fill="#FA9E89"/>
<path fill-rule="evenodd" clip-rule="evenodd" d="M937.466 350.147H967.063C968.785 350.147 970.183 348.726 970.183 346.972V342.712C970.183 340.959 968.785 339.537 967.063 339.537H937.467C935.744 339.537 934.347 340.959 934.347 342.712V346.972C934.347 348.726 935.744 350.147 937.467 350.147H937.466ZM894.994 350.147H924.59C926.313 350.147 927.71 348.726 927.71 346.972V342.712C927.71 340.959 926.313 339.537 924.59 339.537H894.994C893.272 339.537 891.874 340.959 891.874 342.712V346.972C891.874 348.726 893.272 350.147 894.994 350.147ZM849.867 350.147H879.463C881.185 350.147 882.583 348.726 882.583 346.972V342.712C882.583 340.959 881.185 339.537 879.463 339.537H849.868C848.144 339.537 846.747 340.959 846.747 342.712V346.972C846.747 348.726 848.144 350.147 849.868 350.147H849.867ZM807.396 350.147H836.99C838.713 350.147 840.11 348.726 840.11 346.972V342.712C840.11 340.959 838.713 339.537 836.99 339.537H807.394C805.672 339.537 804.274 340.959 804.274 342.712V346.972C804.274 348.726 805.672 350.147 807.394 350.147" fill="#FFDEDD"/>
<path fill-rule="evenodd" clip-rule="evenodd" d="M810.308 375.347H966.801C968.669 375.347 970.182 373.915 970.182 372.151V367.933C970.182 366.169 968.669 364.737 966.801 364.737H810.308C808.44 364.737 806.927 366.169 806.927 367.933V372.151C806.927 373.915 808.44 375.347 810.308 375.347ZM966.801 396.568C968.669 396.568 970.182 395.136 970.182 393.372V389.154C970.182 387.39 968.669 385.958 966.801 385.958H810.308C808.44 385.958 806.927 387.39 806.927 389.154V393.372C806.927 395.136 808.44 396.568 810.308 396.568H966.801ZM810.308 417.789H966.801C968.669 417.789 970.182 416.357 970.182 414.593V410.375C970.182 408.611 968.669 407.179 966.801 407.179H810.308C808.44 407.179 806.927 408.611 806.927 410.375V414.593C806.927 416.357 808.44 417.789 810.308 417.789ZM810.308 435.032H966.801C968.669 435.032 970.182 433.599 970.182 431.835V427.617C970.182 425.853 968.669 424.421 966.801 424.421H810.308C808.44 424.421 806.927 425.853 806.927 427.617V431.835C806.927 433.599 808.44 435.032 810.308 435.032Z" fill="#F4F2F9"/>
<path fill-rule="evenodd" clip-rule="evenodd" d="M909.422 216.615C909.422 216.615 901.06 204.88 885.279 211.675C869.5 218.468 886.629 229.585 886.629 229.585C886.629 229.585 886.966 225.261 889.461 224.027L889.258 227.869L898.092 229.414L899.508 225.708L900.419 229.929L904.869 231.575C904.869 231.575 901.229 244.339 899.104 246.192C899.104 246.192 898.193 249.176 898.497 249.794C898.8 250.412 912.253 253.809 913.973 250.721C915.693 247.634 912.152 243.31 911.04 240.428C909.928 237.546 913.063 222.243 909.421 216.615" fill="#FC516B"/>
<path fill-rule="evenodd" clip-rule="evenodd" d="M948.085 184.358H971.042C972.766 184.358 974.164 182.577 974.164 180.379C974.164 178.181 972.766 176.4 971.042 176.4H948.085C946.361 176.4 944.964 178.181 944.964 180.379C944.964 182.577 946.361 184.358 948.085 184.358Z" fill="#E4DCF1"/>
<path fill-rule="evenodd" clip-rule="evenodd" d="M913.109 279.853C913.109 279.853 909.573 305.432 905.53 315.663H884.214C884.214 315.663 880.7 304.87 897.55 301.339C909.269 298.884 913.109 279.853 913.109 279.853ZM871.153 273.221C871.153 273.221 866.826 286.484 867.638 290.463C868.448 294.442 871.964 297.36 871.964 300.013C871.964 302.665 869.8 312.745 869.8 312.745L857.364 313.011C857.364 313.011 859.429 312.658 864.123 308.965C871.288 303.328 865.138 290.894 866.659 283.832C867.455 280.126 871.153 273.221 871.153 273.221V273.221ZM857.364 294.14C857.364 294.14 857.081 305.258 854.822 303.547C852.563 301.836 853.975 285.301 851.999 279.599C850.021 273.896 844.091 255.65 844.091 255.65L849.174 254.653L857.364 294.14Z" fill="#44AD99"/>
<path fill-rule="evenodd" clip-rule="evenodd" d="M823.682 243.346C823.682 243.346 821.59 244.264 819.036 247.386C818.192 248.42 813.687 250.066 812.621 251.349C797.165 269.944 776.525 284.296 763.296 278.582C746.4 271.285 743.218 264.499 743.218 264.499L754.386 249.43C754.386 249.43 767.211 269.005 777.526 263.673C787.841 258.341 808.175 244.366 808.175 244.366L808.714 235.792C808.714 235.792 809.902 235.474 810.471 237.112C811.042 238.751 811.068 240.168 811.068 240.168L819.097 230.852C819.097 230.852 820.639 230.374 820.17 231.872C819.7 233.371 816.863 237.665 816.863 237.665C816.863 237.665 816.571 238.482 817.186 238.11C817.903 237.676 823.512 231.356 823.512 231.356C823.512 231.356 824.803 231.271 824.276 232.504C823.869 233.455 820.473 237.929 819.325 239.606C818.983 240.104 819.7 239.917 819.7 239.917L824.34 235.978C824.968 235.555 825.618 235.696 825.495 236.466C825.395 237.076 824.131 238.481 823.38 239.038C821.503 240.425 820.195 242.953 820.195 242.953L824.235 241.494C824.235 241.494 825.025 242.195 823.682 243.346V243.346ZM728.618 194.292L733.728 231.853L750.513 234.758C750.513 234.758 749.663 233.872 748.692 232.689C747.699 231.486 746.582 229.97 746.086 228.755C744.958 225.964 744.95 223.362 744.95 223.362C744.95 223.362 752.394 224.202 753.547 219.92C754.704 215.634 752.03 195.67 752.03 195.67C752.03 195.67 748.708 183.124 728.618 194.292Z" fill="#FA9E89"/>
<path fill-rule="evenodd" clip-rule="evenodd" d="M742.705 194.719C742.705 194.719 750.981 200.966 758.923 195.645C758.923 195.645 753.89 195.181 752.323 192.637C752.323 192.637 755.456 193.446 759.146 188.241C759.146 188.241 752.659 189.167 750.423 187.2C748.185 185.233 736.778 182.11 729.956 186.853C723.133 191.596 723.244 195.067 723.244 195.067C723.244 195.067 719.219 196.569 719.329 198.884C719.441 201.197 729.283 220.168 729.283 220.168L731.408 211.724C731.408 211.724 729.73 212.225 728.724 208.293C727.718 204.359 732.08 206.055 732.527 206.865C732.974 207.675 735.882 201.312 735.882 201.312L735.435 197.612C735.435 197.612 733.98 192.868 742.705 194.72" fill="#261F27"/>
<path fill-rule="evenodd" clip-rule="evenodd" d="M727.007 370.551C731.773 389.766 722.959 466.589 722.959 466.589L731.583 468.19C766.305 388.591 758.362 323.621 758.362 323.621L719.327 326.823C719.327 326.823 719.427 325.199 719.468 325.584C719.916 329.574 722.664 353.024 727.007 370.551" fill="white"/>
<path fill-rule="evenodd" clip-rule="evenodd" d="M770.122 447.069L780.147 454.84C780.147 454.84 784.096 454.364 784.856 456.188C785.615 458.011 785.691 460.074 785.691 460.074L775.211 460.232L757.818 453.333L760.552 445.642L770.122 447.069ZM730.543 469.967C730.543 469.967 734.089 475.699 737.664 480.381C738.865 481.954 741.801 482.637 742.943 486.475C743.926 489.778 741.961 492.063 741.961 492.063C741.961 492.063 735.371 490.877 730.787 486.815C726.204 482.751 719.327 474.962 719.327 474.962L721.209 468.189L730.541 469.967H730.543Z" fill="#6397D9"/>
<path fill-rule="evenodd" clip-rule="evenodd" d="M746.118 234.897C746.118 234.897 732.113 235.125 730.863 233.432L729.946 235.949C729.946 235.949 741.042 241.993 748.527 239.429L746.118 234.897V234.897Z" fill="#306299"/>
<path fill-rule="evenodd" clip-rule="evenodd" d="M765.782 253.215L749.074 271.895C749.074 271.895 726.747 251.891 727.301 245.62C727.855 239.351 736.035 226.369 748.583 238.295C760.791 249.898 765.782 253.215 765.782 253.215Z" fill="#8CC5F2"/>
<path fill-rule="evenodd" clip-rule="evenodd" d="M722.732 467.731L726.138 468.189C726.138 468.189 742.099 411.861 736.849 370.245C735.27 357.733 729.756 326.274 729.756 326.274L719.327 327.251C719.749 331.261 722.456 353.585 726.529 371.201C730.998 390.515 722.733 467.731 722.733 467.731" fill="#F4F2F9"/>
<path fill-rule="evenodd" clip-rule="evenodd" d="M740.899 232.845C742.874 233.275 743.951 233.412 744.545 233.432C743.619 232.15 742.576 230.538 742.114 229.243C741.061 226.271 741.053 223.5 741.053 223.5C741.053 223.5 737.11 222.463 736.704 222.952C736.3 223.44 736.704 231.931 740.899 232.845" fill="#E6846F"/>
<path fill-rule="evenodd" clip-rule="evenodd" d="M934.346 237.411C934.346 251.326 945.027 262.611 958.201 262.611C963.717 262.611 968.794 260.633 972.836 257.311V217.511C968.794 214.187 963.718 212.211 958.201 212.211C945.027 212.211 934.346 223.495 934.346 237.411Z" fill="#CEC3E2"/>
<path fill-rule="evenodd" clip-rule="evenodd" d="M934.346 238.074C934.346 251.623 944.291 262.611 956.556 262.611C961.693 262.611 966.418 260.685 970.182 257.451V218.696C966.419 215.464 961.691 213.537 956.556 213.537C944.291 213.537 934.346 224.524 934.346 238.074Z" fill="#C3B8D8"/>
<path fill-rule="evenodd" clip-rule="evenodd" d="M899.836 260.085C899.836 260.085 902.471 258.621 902.886 258.354C903.303 258.09 908.713 259.551 915.928 266.997C923.139 274.443 916.897 280.69 919.947 284.676C923.001 288.666 920.089 297.042 918.561 302.761C917.035 308.477 918.561 315.655 918.561 315.655L918.641 315.663L921.058 315.655C921.058 315.655 929.797 277.367 915.649 262.609C912.204 259.02 907.726 256.372 902.845 254.653L899.836 260.085Z" fill="#44AD99"/>
</g>
</g>
</g>
<defs>
<clipPath id="clip0">
<rect width="955" height="556" fill="white"/>
</clipPath>
</defs>
</svg>
