<svg width="955" height="556" viewBox="0 0 955 556" fill="none" xmlns="http://www.w3.org/2000/svg">
<path d="M0 105H565.5C690.04 105 791 205.96 791 330.5V330.5C791 455.04 690.04 556 565.5 556H0V105Z" fill="#5368DF"/>
<mask id="mask0" mask-type="alpha" maskUnits="userSpaceOnUse" x="254" y="0" width="701" height="453">
<path d="M944.537 0H264.463C258.684 0 254 4.68936 254 10.474V442.526C254 448.311 258.684 453 264.463 453H944.537C950.316 453 955 448.311 955 442.526V10.474C955 4.68936 950.316 0 944.537 0Z" fill="white"/>
</mask>
<g mask="url(#mask0)">
<path d="M944.537 0H264.463C258.684 0 254 4.68936 254 10.474V442.526C254 448.311 258.684 453 264.463 453H944.537C950.316 453 955 448.311 955 442.526V10.474C955 4.68936 950.316 0 944.537 0Z" fill="#E8EAF6"/>
<path fill-rule="evenodd" clip-rule="evenodd" d="M249.383 0.257919H964.769V77.5036H249.383V0.257919Z" fill="#242A45"/>
<path opacity="0.245" d="M304.312 60.4834C315.869 60.4834 325.238 51.1046 325.238 39.5354C325.238 27.9661 315.869 18.5874 304.312 18.5874C292.756 18.5874 283.387 27.9661 283.387 39.5354C283.387 51.1046 292.756 60.4834 304.312 60.4834Z" fill="white"/>
<path opacity="0.104" d="M907.225 60.4834C918.781 60.4834 928.15 51.1046 928.15 39.5354C928.15 27.9661 918.781 18.5874 907.225 18.5874C895.668 18.5874 886.299 27.9661 886.299 39.5354C886.299 51.1046 895.668 60.4834 907.225 60.4834Z" fill="white"/>
<path opacity="0.75" d="M497.872 26.4429H348.779C346.612 26.4429 344.855 28.2014 344.855 30.3706C344.855 32.5399 346.612 34.2984 348.779 34.2984H497.872C500.039 34.2984 501.796 32.5399 501.796 30.3706C501.796 28.2014 500.039 26.4429 497.872 26.4429Z" fill="white"/>
<path opacity="0.25" d="M424.633 44.7724H348.779C346.612 44.7724 344.855 46.5309 344.855 48.7001C344.855 50.8693 346.612 52.6279 348.779 52.6279H424.633C426.8 52.6279 428.557 50.8693 428.557 48.7001C428.557 46.5309 426.8 44.7724 424.633 44.7724Z" fill="white"/>
<path d="M659.429 121.76H339.009C333.231 121.76 328.547 126.449 328.547 132.234V525.009C328.547 530.793 333.231 535.483 339.009 535.483H659.429C665.208 535.483 669.892 530.793 669.892 525.009V132.234C669.892 126.449 665.208 121.76 659.429 121.76Z" fill="white"/>
<path d="M871.299 121.76H724.821C719.043 121.76 714.358 126.449 714.358 132.234V525.009C714.358 530.793 719.043 535.483 724.821 535.483H871.299C877.077 535.483 881.761 530.793 881.761 525.009V132.234C881.761 126.449 877.077 121.76 871.299 121.76Z" fill="white"/>
<path opacity="0.5" d="M584.189 171.769H435.096C432.929 171.769 431.173 173.528 431.173 175.697C431.173 177.866 432.929 179.625 435.096 179.625H584.189C586.356 179.625 588.113 177.866 588.113 175.697C588.113 173.528 586.356 171.769 584.189 171.769Z" fill="#242A45"/>
<path d="M390.63 205.81C402.186 205.81 411.555 196.431 411.555 184.862C411.555 173.293 402.186 163.914 390.63 163.914C379.073 163.914 369.704 173.293 369.704 184.862C369.704 196.431 379.073 205.81 390.63 205.81Z" fill="#F98E5D"/>
<path opacity="0.25" d="M852.296 150.822H745.053C742.886 150.822 741.13 152.58 741.13 154.749C741.13 156.918 742.886 158.677 745.053 158.677H852.296C854.463 158.677 856.219 156.918 856.219 154.749C856.219 152.58 854.463 150.822 852.296 150.822Z" fill="#242A45"/>
<path opacity="0.25" d="M852.296 177.007H745.053C742.886 177.007 741.13 178.765 741.13 180.934C741.13 183.103 742.886 184.862 745.053 184.862H852.296C854.463 184.862 856.219 183.103 856.219 180.934C856.219 178.765 854.463 177.007 852.296 177.007Z" fill="#242A45"/>
<path opacity="0.25" d="M852.296 203.191H745.053C742.886 203.191 741.13 204.95 741.13 207.119C741.13 209.288 742.886 211.047 745.053 211.047H852.296C854.463 211.047 856.219 209.288 856.219 207.119C856.219 204.95 854.463 203.191 852.296 203.191Z" fill="#242A45"/>
<path opacity="0.25" d="M852.296 229.376H745.053C742.886 229.376 741.13 231.135 741.13 233.304C741.13 235.473 742.886 237.232 745.053 237.232H852.296C854.463 237.232 856.219 235.473 856.219 233.304C856.219 231.135 854.463 229.376 852.296 229.376Z" fill="#242A45"/>
<path opacity="0.25" d="M852.296 273.891H745.053C742.886 273.891 741.13 275.649 741.13 277.819C741.13 279.988 742.886 281.746 745.053 281.746H852.296C854.463 281.746 856.219 279.988 856.219 277.819C856.219 275.649 854.463 273.891 852.296 273.891Z" fill="#242A45"/>
<path opacity="0.25" d="M852.296 300.076H745.053C742.886 300.076 741.13 301.834 741.13 304.004C741.13 306.173 742.886 307.931 745.053 307.931H852.296C854.463 307.931 856.219 306.173 856.219 304.004C856.219 301.834 854.463 300.076 852.296 300.076Z" fill="#242A45"/>
<path opacity="0.25" d="M852.296 326.261H745.053C742.886 326.261 741.13 328.019 741.13 330.189C741.13 332.358 742.886 334.116 745.053 334.116H852.296C854.463 334.116 856.219 332.358 856.219 330.189C856.219 328.019 854.463 326.261 852.296 326.261Z" fill="#242A45"/>
<path opacity="0.25" d="M510.951 190.099H435.096C432.929 190.099 431.172 191.857 431.172 194.027C431.172 196.196 432.929 197.954 435.096 197.954H510.951C513.117 197.954 514.874 196.196 514.874 194.027C514.874 191.857 513.117 190.099 510.951 190.099Z" fill="#242A45"/>
<path d="M390.63 279.128C402.186 279.128 411.555 269.749 411.555 258.18C411.555 246.611 402.186 237.232 390.63 237.232C379.073 237.232 369.704 246.611 369.704 258.18C369.704 269.749 379.073 279.128 390.63 279.128Z" fill="#6AC6D6"/>
<path opacity="0.5" d="M584.189 245.087H435.096C432.929 245.087 431.172 246.846 431.172 249.015C431.172 251.184 432.929 252.943 435.096 252.943H584.189C586.356 252.943 588.113 251.184 588.113 249.015C588.113 246.846 586.356 245.087 584.189 245.087Z" fill="#242A45"/>
<path opacity="0.25" d="M510.951 263.417H435.096C432.929 263.417 431.172 265.175 431.172 267.345C431.172 269.514 432.929 271.272 435.096 271.272H510.951C513.117 271.272 514.874 269.514 514.874 267.345C514.874 265.175 513.117 263.417 510.951 263.417Z" fill="#242A45"/>
<path d="M390.63 352.446C402.186 352.446 411.555 343.067 411.555 331.498C411.555 319.929 402.186 310.55 390.63 310.55C379.073 310.55 369.704 319.929 369.704 331.498C369.704 343.067 379.073 352.446 390.63 352.446Z" fill="#A47ED4"/>
<path opacity="0.5" d="M584.189 318.405H435.096C432.929 318.405 431.172 320.164 431.172 322.333C431.172 324.502 432.929 326.261 435.096 326.261H584.189C586.356 326.261 588.113 324.502 588.113 322.333C588.113 320.164 586.356 318.405 584.189 318.405Z" fill="#242A45"/>
<path opacity="0.25" d="M510.951 336.735H435.096C432.929 336.735 431.172 338.493 431.172 340.663C431.172 342.832 432.929 344.59 435.096 344.59H510.951C513.117 344.59 514.874 342.832 514.874 340.663C514.874 338.493 513.117 336.735 510.951 336.735Z" fill="#242A45"/>
<path d="M390.63 425.764C402.186 425.764 411.555 416.385 411.555 404.816C411.555 393.246 402.186 383.868 390.63 383.868C379.073 383.868 369.704 393.246 369.704 404.816C369.704 416.385 379.073 425.764 390.63 425.764Z" fill="#EC7878"/>
<path opacity="0.5" d="M584.189 391.723H435.096C432.929 391.723 431.172 393.482 431.172 395.651C431.172 397.82 432.929 399.579 435.096 399.579H584.189C586.356 399.579 588.113 397.82 588.113 395.651C588.113 393.482 586.356 391.723 584.189 391.723Z" fill="#242A45"/>
<path opacity="0.25" d="M510.951 410.053H435.096C432.929 410.053 431.172 411.811 431.172 413.98C431.172 416.15 432.929 417.908 435.096 417.908H510.951C513.117 417.908 514.874 416.15 514.874 413.98C514.874 411.811 513.117 410.053 510.951 410.053Z" fill="#242A45"/>
</g>
</svg>
